<?xml version="1.0" encoding="UTF-8"?>
<svg id="Layer_1" data-name="Layer 1" xmlns="http://www.w3.org/2000/svg" viewBox="0 0 1080 1080">
  <defs>
    <style>
      .cls-1 {
        fill: #ffb6c0;
      }

      .cls-2 {
        fill: #007070;
      }
    </style>
  </defs>
  <rect class="cls-2" width="1080" height="1080"/>
  <path class="cls-1" d="M914.39,412.07c-5.45-13.71-9.55-28.12-16.58-40.99-60.18-110.99-216.22-118.37-288.74-13.93-28.78,41.43-49.46,86.93-68.6,133.1-19.82-46.34-41.04-92.02-70.54-133.45-73.65-103.61-229.59-94.54-288.56,17.07-6.85,12.96-10.81,27.42-16.08,41.17-1.22,10.3-2.43,20.61-3.65,30.91.27,1.46.77,2.87.77,4.33.14,39.84,13.51,74.91,39.55,105.29,26.71,31.22,58.47,57,91.22,81.63,79.1,59.43,163.74,110.55,249.68,159.68l32.48-19.19c73.56-43.87,145.67-89.85,213.6-142.08,32.52-24.98,63.96-51.12,90.32-82.6,25.68-30.69,38.69-65.89,38.38-105.73,0-1.46.49-2.87.72-4.33-1.31-10.26-2.66-20.56-3.96-30.86ZM368.04,334.34c25.18,7.87,45.58,22.42,61.26,43.38,28.06,37.45,48.29,79.15,65.95,121.91,7.21,17.42,14.1,34.98,20.86,52.58-3.24,8.76-6.49,17.51-9.59,26.27-37.03-57.31-74.64-114.22-116.8-168.17-22.79-29.1-48.42-55.45-79.23-76.54-.72-.53-1.31-1.24-2.84-2.65,21.17-4.02,40.95-2.83,60.41,3.23ZM256.11,356.14c4.05,1.5,8.29,2.65,12.12,4.55,19.32,9.46,35.54,23.08,50.81,37.85,29.91,28.92,54.14,62.35,77.16,96.53,30.86,45.9,61.04,92.24,91.31,138.54-1.53,4.73-3.11,9.46-4.64,14.19-12.43-12.16-24.73-24.41-36.71-36.97-44.1-46.34-88.06-92.82-130.94-140.22-23.29-25.74-42.07-54.79-54.14-87.47-3.02-8.18-4.68-16.89-6.94-25.34.68-.57,1.35-1.11,1.98-1.68ZM281.74,570.95c-20.04-16.89-39.86-34.31-54.28-56.25-22.7-34.49-25.81-71.33-10.95-109.62.5-1.33,1.35-2.48,1.53-2.79,10.5,18.57,20.23,37.76,31.76,55.85,23.29,36.61,52.75,68.54,82.79,99.76,44.55,46.39,90.04,91.93,135.18,137.79-.45,1.37-.86,2.7-1.26,4.02-64.05-39.44-127.21-80.3-184.77-128.77ZM565.52,551.98v-.04c6.44-17.29,13.02-34.54,19.87-51.69,17.16-42.98,36.94-84.86,64.55-122.66,15.45-21.14,35.68-35.86,60.81-44.04,19.37-6.23,39.1-7.65,60.32-3.85-1.49,1.46-2.07,2.17-2.79,2.65-30.59,21.45-55.9,48.07-78.33,77.43-41.4,54.08-78.15,111.12-114.46,168.52-3.24-8.8-6.58-17.55-9.96-26.31ZM595.07,633.39c29.59-46.39,59.1-92.82,89.32-138.8,22.61-34.4,46.44-68.14,76.08-97.37,15.09-14.9,31.13-28.7,50.36-38.38,3.83-1.95,8.02-3.14,12.03-4.64.68.53,1.35,1.06,2.03,1.64-2.16,8.49-3.69,17.2-6.62,25.43-11.71,32.77-30.18,62.04-53.2,88.04-42.34,47.85-85.81,94.76-129.37,141.59-11.67,12.51-23.65,24.72-35.72,36.83-1.62-4.78-3.24-9.55-4.91-14.33ZM853.35,512.41c-14.23,22.11-33.83,39.71-53.69,56.82-56.8,48.99-119.32,90.38-182.75,130.4-.45-1.37-.9-2.79-1.31-4.2,44.41-46.16,89.19-92.02,133.06-138.67,29.68-31.57,58.78-63.81,81.67-100.64,11.35-18.22,20.86-37.54,31.13-56.2.23.31,1.08,1.46,1.58,2.74,15.27,38.16,12.61,75-9.68,109.75Z"/>
</svg>