<?xml version="1.0" encoding="UTF-8" standalone="no"?><!DOCTYPE svg PUBLIC "-//W3C//DTD SVG 1.1//EN" "http://www.w3.org/Graphics/SVG/1.1/DTD/svg11.dtd"><svg width="100%" height="100%" viewBox="0 0 4500 4500" version="1.1" xmlns="http://www.w3.org/2000/svg" xmlns:xlink="http://www.w3.org/1999/xlink" xml:space="preserve" xmlns:serif="http://www.serif.com/" style="fill-rule:evenodd;clip-rule:evenodd;stroke-linejoin:round;stroke-miterlimit:2;"><rect id="Logo" x="0" y="0" width="4500" height="4500" style="fill:none;"/><g id="Layer-1" serif:id="Layer 1"><path d="M1331.306,1206.265c22.667,12.371 37.53,32.879 37.834,52.233c0.243,14.415 -7.378,30.493 -20.904,44.125c-41.154,41.489 -111.905,44.604 -182.178,41.853c-65.706,-2.584 -136.198,-7.507 -220.194,-15.387c77.81,-68.388 165.263,-113.76 254.198,-131.67c56.526,-11.406 99.444,-8.503 131.244,8.845m-984.763,415.039l0.03,0c20.083,1.368 37.591,-13.579 38.996,-33.267c0.699,-9.559 -2.454,-18.807 -8.86,-26.041c-6.398,-7.242 -15.288,-11.588 -25.015,-12.264c-89.254,-6.17 -149.291,-24.339 -173.637,-52.545c-9.521,-11.018 -13.244,-23.586 -11.702,-39.551c1.748,-18.351 12.006,-38.145 28.86,-55.759c58.198,-60.82 146.616,-61.633 232.215,-57.233c68.745,3.533 138.843,12.789 207.36,21.839c35.167,4.635 71.549,9.438 107.582,13.427l1.824,0.205c16.2,1.793 32.682,3.609 49.376,5.441c-66.139,83.6 -120.576,181.965 -161.935,292.678c-56.747,151.928 -84.558,327.213 -82.643,520.994c0.805,80.561 24.84,282.131 39.521,366.027c3.017,17.279 18.153,29.825 35.987,29.825c2.059,0 4.126,-0.175 6.208,-0.524c19.863,-3.351 33.237,-21.93 29.832,-41.428c-13.951,-79.9 -37.712,-278.696 -38.457,-354.599c-1.831,-185.096 24.468,-351.833 78.167,-495.592c44.931,-120.256 105.462,-223.91 179.974,-308.179c71.952,7.348 177.451,17.264 282.898,21.413c82.985,3.336 176.137,-1.664 237.488,-63.487c26.998,-27.218 42.157,-61.967 41.61,-95.333c-0.737,-45.204 -29.62,-88.813 -75.409,-113.798c-47.72,-26.025 -107.073,-31.398 -181.433,-16.421c-120.15,24.202 -235.581,90.705 -334.136,192.451c-34.376,-3.64 -67.978,-7.356 -100.675,-10.972c-35.653,-3.944 -71.754,-8.716 -106.807,-13.343c-69.224,-9.141 -140.796,-18.586 -212.512,-22.272c-98.137,-5.023 -209.67,-3.45 -289.319,79.756c-19.741,20.63 -44.141,54.399 -48.35,98.144c-3.419,35.463 6.238,66.648 28.715,92.688c38.449,44.528 111.799,69.953 224.244,77.719" style="fill:#007070;fill-rule:nonzero;"/><path d="M1244.294,2489.371c-243.507,0 -441.611,-194.472 -441.611,-433.496c0,-239.039 198.105,-433.503 441.611,-433.503c243.491,0 441.588,194.465 441.588,433.503c0,239.023 -198.097,433.496 -441.588,433.496m-514.695,-433.496c0,278.597 230.885,505.25 514.695,505.25c283.802,0 514.687,-226.653 514.687,-505.25c0,-278.597 -230.885,-505.258 -514.687,-505.258c-283.81,0 -514.695,226.66 -514.695,505.258" style="fill:#007070;fill-rule:nonzero;"/><path d="M3076.525,2049.626c14.073,-103.555 38.464,-181.433 78.532,-251.242c116.639,-203.196 299.607,-254.266 384.598,-267.055l0,518.297l-463.131,0Zm-86.382,499.057c0.433,19.346 16.801,35.083 37.325,35.083l0.015,0c9.757,-0.213 18.852,-4.141 25.6,-11.064c6.755,-6.93 10.349,-16.026 10.129,-25.6c-4.498,-200.422 -2.903,-325.063 5.555,-425.73l470.889,0l0,426.52c0,19.787 16.39,35.881 36.542,35.881c20.152,0 36.55,-16.094 36.55,-35.881l0,-1092.999l-37.423,0.866c-12.728,0.304 -313.68,10.76 -483.936,307.404c-97.894,170.529 -110.348,380.153 -101.245,785.519" style="fill:#007070;fill-rule:nonzero;"/><path d="M3906.694,2562.554c41.815,17.804 87.263,26.831 135.089,26.831l0.046,0c65.896,0 132.346,-17.431 192.17,-50.402c80.895,-44.619 139.838,-117.141 161.707,-198.978c25.79,-96.442 -0.562,-209.335 -70.478,-301.993c-84.155,-111.541 -211.585,-178.796 -325.147,-229.875c-87.772,-39.483 -145.499,-79.786 -141.928,-148.204c3.161,-61.078 46.542,-115.978 110.522,-139.861c59.384,-22.15 119.147,-11.238 159.777,29.262c25.607,25.531 41.975,60.66 44.923,96.389c0.798,9.605 5.334,18.32 12.796,24.528c7.431,6.185 16.975,9.149 26.58,8.328c9.726,-0.767 18.579,-5.213 24.901,-12.507c6.322,-7.302 9.369,-16.58 8.586,-26.132c-4.377,-53.008 -27.712,-103.068 -65.706,-140.948c-60.66,-60.47 -151.791,-78.091 -237.838,-45.987c-91.04,33.989 -152.877,113.775 -157.543,203.272c-6.824,131.039 117.62,187.018 184.48,217.094c105.12,47.271 222.58,108.874 296.857,207.345c56.861,75.356 78.745,165.468 58.532,241.067c-16.877,63.137 -63.099,119.496 -126.837,154.64c-84.596,46.656 -182.695,54.232 -262.435,20.296c-77.491,-32.986 -131.442,-102.331 -156,-200.544c-2.333,-9.308 -8.207,-17.165 -16.557,-22.135c-8.351,-4.977 -18.206,-6.451 -27.644,-4.141c-19.567,4.711 -31.58,24.179 -26.778,43.388c38.16,152.627 128.691,219.799 197.922,249.266" style="fill:#007070;fill-rule:nonzero;"/><path d="M2387.466,1509.084l316.188,0l0,1019.953c0,19.779 16.39,35.873 36.55,35.873c20.152,0 36.55,-16.094 36.55,-35.873l0,-1019.953l316.188,0c20.152,0 36.55,-16.094 36.55,-35.873c0,-19.779 -16.398,-35.873 -36.55,-35.873l-350.055,0.008c-1.748,-0.228 -4.263,-0.228 -4.681,-0.008l-350.739,0c-20.144,0 -36.542,16.094 -36.542,35.873c0,19.779 16.398,35.873 36.542,35.873" style="fill:#007070;fill-rule:nonzero;"/><path d="M1902.677,1821.176l0,-291.454c95.735,-6.337 252.861,-2.424 305.626,82.628c25.19,40.6 26.869,92.4 4.088,125.971c-58.168,85.705 -183.872,84.284 -295.55,83.008c-4.757,-0.053 -9.491,-0.106 -14.164,-0.152m-36.55,762.594c20.159,0 36.55,-16.086 36.55,-35.873l0,-634.997c192.223,-2.736 390.738,-4.992 476.003,182.755c62.02,136.586 58.244,306.986 48.016,440.183c-0.737,9.559 2.363,18.822 8.731,26.094c6.368,7.264 15.243,11.664 25,12.386c19.787,1.413 37.644,-13.579 39.156,-33.085c10.866,-141.601 14.536,-323.543 -54.163,-474.802c-51.291,-112.954 -136.738,-179.83 -267.29,-208.386c40.053,-18.617 71.359,-44.984 95.09,-79.938c44.574,-65.66 30.873,-149.314 -2.485,-203.082c-74.414,-119.93 -262.572,-128.227 -406.764,-114.117c-15.684,0.707 -34.392,9.255 -34.392,45.949l0,1041.039c0,19.787 16.39,35.873 36.55,35.873" style="fill:#007070;fill-rule:nonzero;"/><path d="M3312.214,3030.007c-63.487,93.532 -200.141,91.944 -320.724,90.53l-0.904,-0.015c-5.486,-0.061 -10.912,-0.122 -16.276,-0.175l0,-318.133c104.026,-6.907 275.808,-2.872 333.49,90.074c27.538,44.369 29.338,101.001 4.415,137.718m-40.797,129.793c44.505,-20.205 79.14,-49.08 105.279,-87.597c48.175,-70.949 33.351,-161.365 -2.705,-219.48c-80.637,-129.983 -285.048,-138.789 -442.31,-123.319l-34.878,3.435l0,1175.52c0,20.972 17.386,38.039 38.753,38.039c21.367,0 38.753,-17.067 38.753,-38.039l0,-690.224c209.411,-3.024 425.548,-5.737 518.494,198.91c67.43,148.478 63.32,333.604 52.21,478.29c-1.596,20.919 14.43,39.217 35.592,40.774c21.231,1.983 40.091,-14.316 41.686,-35.053c11.801,-153.592 15.798,-350.944 -58.707,-514.991c-55.896,-123.091 -149.268,-195.665 -292.168,-226.265" style="fill:#007070;fill-rule:nonzero;"/><path d="M1441.511,3366.338c15.266,-113.053 41.815,-197.975 85.5,-274.091c127.293,-221.759 327.274,-276.865 419.226,-290.512l0,564.603l-504.726,0Zm17.978,-311.431c-106.161,184.959 -119.664,412.402 -109.77,852.258c0.448,20.509 17.796,37.203 39.566,37.203l0.015,0c10.365,-0.228 20.015,-4.4 27.165,-11.755c7.158,-7.34 10.965,-16.975 10.729,-27.12c-4.901,-218.028 -3.138,-353.505 6.109,-463.07l512.932,0l0,463.906c0,20.98 17.378,38.046 38.746,38.046c21.375,0 38.753,-17.067 38.753,-38.046l0,-1185.588l-39.68,0.919c-13.784,0.327 -339.987,11.679 -524.566,333.247" style="fill:#007070;fill-rule:nonzero;"/><path d="M4329.587,2801.738l0,564.603l-504.733,0c15.266,-113.053 41.815,-197.975 85.5,-274.091c127.308,-221.767 327.282,-276.865 419.233,-290.512m37.834,-80.075l-0.015,0c-13.784,0.327 -339.987,11.679 -524.566,333.239c-106.168,184.959 -119.671,412.402 -109.785,852.265c0.456,20.509 17.804,37.195 39.566,37.195l0.023,0c10.365,-0.228 20.007,-4.392 27.165,-11.748c7.158,-7.348 10.965,-16.983 10.729,-27.12c-4.909,-218.036 -3.138,-353.505 6.109,-463.07l512.94,0l0,463.906c0,20.98 17.378,38.046 38.753,38.046c21.367,0 38.746,-17.067 38.746,-38.046l0,-1185.588l-39.665,0.919Z" style="fill:#007070;fill-rule:nonzero;"/><path d="M2798.789,2759.932c0.144,-20.972 -17.12,-38.16 -38.396,-38.312c-10.646,0.099 -19.962,3.716 -27.401,10.858c-7.477,7.188 -11.634,16.747 -11.702,26.914c-0.684,94.96 1.269,191.729 3.146,285.307l10.76,-0.205l-10.722,1.444c3.442,171.57 7.014,348.976 -5.433,521.108c-4.308,59.49 -11.755,121.913 -36.899,175.385c-40.949,87.088 -144.944,139.299 -247.093,124.101c-143.919,-21.314 -220.323,-148.265 -233.606,-388.117c-9.103,-164.473 -5.418,-333.019 -1.839,-496.185c1.596,-72.795 3.245,-148.075 3.739,-222.291c0.129,-20.972 -17.143,-38.138 -38.746,-38.282c-21.238,0 -38.632,16.953 -38.753,37.796c-0.494,74.338 -2.219,152.323 -3.731,221.288c-3.594,164.42 -7.318,334.44 1.953,501.8c15.364,277.571 116.1,432.075 299.425,459.232c15.281,2.249 30.919,3.397 46.466,3.397c120.955,0 234.502,-68.661 282.548,-170.856c30.341,-64.505 39.004,-135.15 43.844,-201.889c12.705,-175.689 9.088,-354.926 5.6,-528.266c-1.877,-92.992 -3.822,-189.153 -3.161,-284.228" style="fill:#007070;fill-rule:nonzero;"/><path d="M856.679,4024.841c-85.143,75.029 -180.939,124.808 -278.324,144.412c-61.853,12.431 -108.79,9.263 -143.501,-9.681c-24.87,-13.579 -41.17,-36.101 -41.519,-57.37c-0.258,-15.851 8.093,-33.495 22.933,-48.449c31.99,-32.234 81.936,-46.618 161.973,-46.618c11.254,0 23.404,0.274 37.157,0.805c72.195,2.849 149.39,8.252 241.28,16.899m564.74,-16.246l-0.008,0c-75.295,-3.86 -151.753,-13.966 -226.159,-23.799c-38.434,-5.076 -78.175,-10.319 -117.574,-14.681l-12.485,-1.375c-14.536,-1.611 -29.247,-3.229 -44.141,-4.856c72.377,-91.351 131.92,-198.864 177.125,-319.873c61.921,-165.772 92.248,-357.008 90.15,-568.395c-0.851,-87.719 -27.082,-307.708 -43.1,-399.37c-3.67,-21.033 -24.156,-35.151 -45.554,-31.633c-21.436,3.602 -35.888,23.662 -32.218,44.718c15.228,87.172 41.147,304.144 41.983,387.038c2.006,201.995 -26.717,384.006 -85.341,540.979c-49.072,131.343 -115.203,244.563 -196.623,336.59c-78.433,-8.001 -193.682,-18.845 -308.901,-23.389c-90.424,-3.617 -191.965,1.778 -258.841,69.163c-29.384,29.62 -45.896,67.438 -45.296,103.729c0.79,49.186 32.234,96.64 82.066,123.835c33.123,18.07 70.698,26.861 114.877,26.861c25.342,0 53.206,-3.032 82.841,-9.004c131.069,-26.383 257.002,-98.965 364.553,-210.042c37.651,3.989 74.459,8.062 110.067,12.013c39.042,4.308 78.342,9.506 116.852,14.597c75.439,9.954 153.44,20.235 231.782,24.263c21.618,0.889 40.144,-15.699 41.284,-36.664c1.125,-21.314 -15.63,-39.574 -37.34,-40.706" style="fill:#007070;fill-rule:nonzero;"/><path d="M527.188,3418.718c-67.089,4.384 -155.81,43.388 -195.597,109.451c-22.902,38.001 -26.208,79.345 -9.764,120.135c-105.234,-74.102 -169.108,-194.404 -169.108,-322.958c0,-219.214 181.669,-397.554 404.963,-397.554c46.724,0 92.574,7.849 136.449,23.335c-33.799,115.674 -73.623,245.193 -112.202,370.647c-11.026,35.828 -21.892,71.169 -32.515,105.819c-0.737,-0.805 -1.535,-1.558 -2.386,-2.28c-5.494,-4.704 -12.811,-7.135 -19.84,-6.596m-148.174,136.989c29.772,-49.406 100.454,-79.649 151.829,-83.008c1.725,-0.114 3.397,-0.38 5.015,-0.79c-26.61,87.179 -51.261,169.161 -72.172,242.321c-0.752,-0.471 -1.467,-0.927 -2.112,-1.345c-4.825,-3.077 -10.091,-6.421 -15.851,-9.772c-34.278,-19.939 -57.849,-43.069 -70.052,-68.76c-12.872,-27.127 -11.748,-53.586 3.343,-78.646m366.05,-582.718c132.612,68.282 217.603,205.217 217.603,352.357c0,155.772 -93.38,297.883 -237.663,362.099l-0.79,0.296c-39.05,14.962 -58.654,22.5 -90.204,4.764c-25.493,-14.361 -36.223,-46.846 -36.732,-77.172c2.264,0.577 4.628,0.889 7.067,0.889l96.207,0c1.786,0 4.384,0.258 7.439,0.524l1.869,0.167c26.291,2.31 45.926,3.093 59.984,-8.214c7.272,-5.851 16.33,-16.785 18.191,-35.676c2.91,-29.635 -13.974,-67.218 -27.287,-82.947c-25.266,-29.901 -66.716,-44.566 -105.599,-37.302c-28.161,5.243 -50.713,20.258 -68,39.589c15.288,-50.113 31.253,-102.004 47.53,-154.952c37.75,-122.718 76.731,-249.472 110.386,-364.424m-79.642,532.939c18.921,-3.533 40.729,4.263 52.909,18.685c5.266,6.238 14.278,26.542 14.924,39.612c-3.845,-0.091 -9.673,-0.418 -18.48,-1.208c-5.874,-0.502 -10.927,-0.897 -14.225,-0.897l-92.985,0c10.615,-25.729 29.893,-50.987 57.856,-56.192m-212.101,264.859l0.046,0.008c0.532,0.22 1.079,0.388 1.672,0.54c6.299,2.561 12.112,3.792 17.735,3.792c4.582,0 9.118,-0.821 13.51,-2.439c20.083,-7.447 26.117,-28.609 28.092,-35.562c9.05,-31.785 18.845,-65.318 29.217,-100.302c5.144,40.85 24.316,80.85 63.008,102.605c20.942,11.793 41.246,17.523 62.073,17.523c26.519,-0.008 50.926,-9.354 74.057,-18.229c0.95,-0.266 1.884,-0.562 2.819,-0.965c165.377,-72.712 272.23,-234.593 272.23,-412.41c0,-171.388 -100.72,-329.478 -257.359,-405.29c10.296,-35.888 19.164,-67.544 27.028,-96.518c1.9,-6.983 0.912,-14.27 -2.766,-20.524c-3.701,-6.261 -9.65,-10.729 -16.74,-12.576c-7.112,-1.884 -14.506,-0.927 -20.874,2.682c-6.39,3.617 -10.957,9.46 -12.857,16.481c-7.348,27.044 -15.744,57.058 -24.992,89.353c-48.761,-16.77 -99.679,-25.258 -151.54,-25.258c-253.689,0 -460.084,202.611 -460.084,451.649c0,181.008 109.687,344.098 279.661,415.586l76.063,29.855Z" style="fill:#ffb6c0;fill-rule:nonzero;"/><path d="M2947.091,638.578c-24.384,37.872 -57.947,68.016 -91.967,97.331c-97.293,83.92 -204.389,154.807 -313.019,223.355c-0.775,-2.348 -1.55,-4.772 -2.242,-7.196c76.078,-79.072 152.771,-157.611 227.914,-237.519c50.85,-54.08 100.69,-109.299 139.884,-172.391c19.445,-31.208 35.729,-64.3 53.32,-96.267c0.38,0.532 1.846,2.5 2.698,4.696c26.155,65.364 21.603,128.455 -16.588,187.991m-442.409,207.231c50.691,-79.452 101.229,-158.987 152.999,-237.754c38.73,-58.928 79.543,-116.715 130.317,-166.783c25.843,-25.524 53.312,-49.156 86.26,-65.744c6.558,-3.328 13.731,-5.38 20.6,-7.948c1.155,0.904 2.31,1.816 3.473,2.796c-3.708,14.544 -6.33,29.468 -11.345,43.556c-20.06,56.124 -51.694,106.26 -91.123,150.795c-72.522,81.959 -146.981,162.315 -221.584,242.526c-19.984,21.436 -40.508,42.34 -61.184,63.092c-2.781,-8.176 -5.555,-16.36 -8.412,-24.536m-50.615,-139.443l0,-0.076c11.033,-29.612 22.294,-59.156 34.027,-88.54c29.392,-73.623 63.266,-145.347 110.56,-210.11c26.466,-36.2 61.108,-61.42 104.162,-75.432c33.176,-10.684 66.975,-13.108 103.311,-6.596c-2.546,2.5 -3.549,3.716 -4.787,4.544c-52.385,36.74 -95.751,82.331 -134.17,132.627c-70.903,92.628 -133.866,190.339 -196.053,288.65c-5.555,-15.076 -11.269,-30.068 -17.051,-45.068m-486.079,32.492c-34.338,-28.928 -68.282,-58.776 -92.977,-96.343c-38.882,-59.08 -44.209,-122.171 -18.746,-187.763c0.851,-2.272 2.31,-4.24 2.622,-4.772c17.978,31.816 34.642,64.687 54.399,95.667c39.885,62.712 90.348,117.399 141.806,170.871c76.313,79.452 154.238,157.467 231.546,236.007c-0.775,2.348 -1.467,4.62 -2.158,6.892c-109.717,-67.56 -217.892,-137.543 -316.492,-220.559m-43.905,-367.95c6.945,2.576 14.194,4.544 20.752,7.804c33.1,16.208 60.88,39.536 87.035,64.832c51.23,49.536 92.742,106.799 132.171,165.347c52.849,78.616 104.542,157.991 156.396,237.291c-2.629,8.108 -5.327,16.216 -7.948,24.316c-21.299,-20.828 -42.363,-41.808 -62.886,-63.32c-75.531,-79.376 -150.841,-158.979 -224.29,-240.171c-39.893,-44.087 -72.066,-93.843 -92.742,-149.823c-5.167,-14.012 -8.024,-28.928 -11.884,-43.396c1.163,-0.988 2.318,-1.892 3.397,-2.88m191.729,-37.34c43.13,13.48 78.084,38.404 104.937,74.3c48.062,64.155 82.711,135.583 112.954,208.819c12.34,29.848 24.149,59.915 35.721,90.059c-5.555,15 -11.109,29.992 -16.436,44.992c-63.418,-98.159 -127.847,-195.643 -200.065,-288.042c-39.034,-49.84 -82.939,-94.983 -135.712,-131.115c-1.239,-0.904 -2.242,-2.12 -4.863,-4.544c36.261,-6.892 70.136,-4.848 103.463,5.532m935.82,133.151c-9.331,-23.48 -16.352,-48.168 -28.389,-70.212c-103.083,-190.111 -370.351,-202.755 -494.566,-23.86c-49.308,70.971 -84.717,148.911 -117.513,227.983c-33.943,-79.376 -70.288,-157.619 -120.826,-228.583c-126.145,-177.467 -393.261,-161.935 -494.255,29.232c-11.732,22.196 -18.518,46.96 -27.545,70.516c-2.082,17.652 -4.164,35.296 -6.246,52.94c0.456,2.5 1.307,4.924 1.307,7.424c0.236,68.244 23.146,128.311 67.742,180.347c45.752,53.472 100.15,97.628 156.244,139.815c135.484,101.799 280.459,189.351 427.668,273.498l55.637,-32.872c125.993,-75.136 249.517,-153.903 365.868,-243.355c55.706,-42.796 109.557,-87.559 154.701,-141.487c43.973,-52.56 66.268,-112.855 65.736,-181.091c0,-2.5 0.843,-4.924 1.231,-7.424c-2.242,-17.576 -4.552,-35.22 -6.793,-52.871" style="fill:#ffb6c0;fill-rule:nonzero;"/></g></svg>