<?xml version="1.0" encoding="UTF-8"?>
<svg id="Layer_1" data-name="Layer 1" xmlns="http://www.w3.org/2000/svg" viewBox="0 0 1080 1080">
  <defs>
    <style>
      .cls-1 {
        fill: #9a9a9a;
      }

      .cls-2 {
        fill: #416724;
      }

      .cls-3 {
        fill: #c02822;
      }

      .cls-4 {
        fill: #fff;
      }

      .cls-5 {
        fill: #6dac3b;
      }
    </style>
  </defs>
  <path class="cls-4" d="M709.58,693.12c-196.94,45.49-397.2,133.1-533,102.8-15.36-3.43-54.86-17.29-68.59-43.31,137.91,51.68,356.79-48.68,573.45-101.92,146.87-36.09,306.78-52.16,332.4-23.19,0,0,34.13-209.15-33.8-257.86-28.18-20.21-68.28-23.8-118.37-17.65-.36-41.88-6.53-87.2-29.19-105.22-40.8-32.45-113.27-9.83-213.59,21.48-56.01,17.48-119.49,37.3-188.83,50.74l-10.33,2.01c-77.85,15.13-158.36,30.79-175.71,13.66l-6.76-6.67-2.13,11.83c20.08,19.81,103.72,2.57,190.62-14.29,190.28-36.9,337.26-121.75,398.24-73.24,2.62,2.08,4.94,4.69,7.11,7.54,13.08,15.61,20.02,47.66,20.23,93.52-117.33,17-286.42,82.64-486.65,117.33-98.97,17.14-195.15,34.56-251.35,31.48-.24-.24-.54-.46-.78-.71,0,0-.07.27-.17.66-19.58-1.16-34.25-4.84-42.29-11.99,0,0-49.84,223.18,26.26,257.75,1.1.5,2.26.9,3.37,1.38,17.77,37.15,58.35,47.12,73.91,50.81,133.86,31.76,333-52.05,528.12-94.07,145.77-31.39,303.18-40.52,326.61-7.96,0,0,1.85-9.18,4.28-24.29-38.78-24.62-186.21-12.23-323.1,19.39Z"/>
  <g>
    <path class="cls-5" d="M1015.61,400.09c-5.62-4.72-11.83-8.62-18.5-11.91,44.49,69.03,16.73,239.32,16.73,239.32-25.62-28.97-185.53-12.9-332.4,23.19-216.66,53.24-435.55,153.6-573.45,101.92.01.02.03.04.04.07,1.4,2.63,3.11,5.11,4.98,7.5.49.63.96,1.28,1.48,1.89.77.9,1.59,1.76,2.42,2.62.58.61,1.15,1.22,1.76,1.81.85.83,1.74,1.63,2.64,2.43.64.57,1.29,1.13,1.95,1.68.92.77,1.86,1.52,2.82,2.25.7.53,1.4,1.05,2.11,1.56.97.7,1.95,1.4,2.95,2.06.72.48,1.46.94,2.2,1.41,1.02.65,2.04,1.3,3.07,1.91.7.41,1.41.79,2.11,1.19,2.13,1.2,4.27,2.34,6.41,3.4.63.31,1.26.64,1.88.94.98.47,1.94.89,2.91,1.33.85.38,1.69.77,2.53,1.13.9.39,1.78.74,2.66,1.11.88.36,1.77.72,2.63,1.06.83.32,1.64.62,2.44.92.89.33,1.76.64,2.61.94.74.26,1.47.51,2.18.75.88.29,1.74.57,2.57.83.62.19,1.25.4,1.84.57.91.27,1.77.51,2.61.75.45.12.92.26,1.35.37,1.23.32,2.39.61,3.42.84,135.8,30.29,336.06-57.31,533-102.8,4.44-1.03,8.9-2.03,13.36-3.01,1.45-.32,2.91-.63,4.36-.94,3-.65,6-1.31,9-1.94,1.79-.38,3.58-.74,5.38-1.11,2.67-.55,5.35-1.11,8.02-1.65,1.95-.39,3.89-.77,5.84-1.15,2.5-.49,5-.99,7.5-1.46,2.03-.39,4.06-.76,6.08-1.14,2.43-.45,4.87-.91,7.29-1.35,2.06-.37,4.12-.74,6.18-1.1,2.36-.42,4.71-.83,7.07-1.24,2.11-.36,4.21-.72,6.31-1.07,2.31-.39,4.61-.77,6.9-1.14,2.12-.34,4.24-.68,6.36-1.02,2.23-.35,4.46-.7,6.68-1.03,2.15-.33,4.3-.65,6.44-.97,2.18-.32,4.34-.63,6.5-.94,2.16-.31,4.31-.61,6.46-.91,2.08-.28,4.14-.56,6.21-.83,2.23-.29,4.45-.59,6.66-.87,1.91-.24,3.81-.47,5.71-.7,2.3-.28,4.6-.56,6.88-.83,1.77-.2,3.51-.39,5.26-.59,2.38-.26,4.76-.53,7.11-.78,1.48-.15,2.94-.29,4.42-.44,2.58-.26,5.18-.52,7.73-.76.24-.02.47-.04.7-.06,10.51-.96,20.69-1.72,30.51-2.28.85-.05,1.71-.11,2.55-.15,2.62-.14,5.18-.25,7.74-.36,1.03-.04,2.09-.1,3.11-.14,2.43-.09,4.81-.16,7.19-.23,1.1-.03,2.22-.07,3.31-.09,2.33-.05,4.6-.08,6.87-.1,1.07-.01,2.15-.03,3.21-.03,2.23,0,4.42,0,6.59.02,1.04,0,2.08.02,3.11.03,2.14.03,4.25.08,6.33.15.98.03,1.95.06,2.91.1,2.08.08,4.13.17,6.14.28.88.05,1.75.1,2.62.15,2.02.12,4,.26,5.94.42.8.06,1.58.14,2.36.21,1.94.17,3.85.36,5.7.57.7.08,1.37.17,2.05.25,1.89.23,3.75.47,5.54.73.53.08,1.04.17,1.57.25,1.87.29,3.72.6,5.48.94.31.06.59.13.9.19,15.51,3.08,26.53,7.85,31.61,14.58,0,0,41.65-224.57-23.72-279.49Z"/>
    <path class="cls-5" d="M364.71,470.68c200.16-34.67,369.2-100.28,486.53-117.31-.26-33.37-4.22-68.61-17.31-89.52-.92-1.37-1.81-2.83-2.8-4.02-1.03-1.36-2.11-2.65-3.23-3.87-1.24-1.31-2.51-2.58-3.88-3.67-60.98-48.51-207.96,36.34-398.24,73.24-86.9,16.85-170.55,34.09-190.62,14.29,0,0-19.96,98.61-4.85,153.11,41.59-6.03,87.65-14.16,134.4-22.26Z"/>
  </g>
  <g>
    <path class="cls-2" d="M1015.61,400.09c-5.62-4.72-11.83-8.62-18.5-11.91,44.49,69.03,16.73,239.32,16.73,239.32-25.62-28.97-185.53-12.9-332.4,23.19-216.66,53.24-435.55,153.6-573.45,101.92.01.02.03.04.04.07,1.4,2.63,3.11,5.11,4.98,7.5.49.63.96,1.28,1.48,1.89.77.9,1.59,1.76,2.42,2.62.58.61,1.15,1.22,1.76,1.81.85.83,1.74,1.63,2.64,2.43.64.57,1.29,1.13,1.95,1.68.92.77,1.86,1.52,2.82,2.25.7.53,1.4,1.05,2.11,1.56.97.7,1.95,1.4,2.95,2.06.72.48,1.46.94,2.2,1.41,1.02.65,2.04,1.3,3.07,1.91.7.41,1.41.79,2.11,1.19,2.13,1.2,4.27,2.34,6.41,3.4.63.31,1.26.64,1.88.94.98.47,1.94.89,2.91,1.33.85.38,1.69.77,2.53,1.13.9.39,1.78.74,2.66,1.11.88.36,1.77.72,2.63,1.06.83.32,1.64.62,2.44.92.89.33,1.76.64,2.61.94.74.26,1.47.51,2.18.75.88.29,1.74.57,2.57.83.62.19,1.25.4,1.84.57.91.27,1.77.51,2.61.75.45.12.92.26,1.35.37,1.23.32,2.39.61,3.42.84,135.8,30.29,336.06-57.31,533-102.8,4.44-1.03,8.9-2.03,13.36-3.01,1.45-.32,2.91-.63,4.36-.94,3-.65,6-1.31,9-1.94,1.79-.38,3.58-.74,5.38-1.11,2.67-.55,5.35-1.11,8.02-1.65,1.95-.39,3.89-.77,5.84-1.15,2.5-.49,5-.99,7.5-1.46,2.03-.39,4.06-.76,6.08-1.14,2.43-.45,4.87-.91,7.29-1.35,2.06-.37,4.12-.74,6.18-1.1,2.36-.42,4.71-.83,7.07-1.24,2.11-.36,4.21-.72,6.31-1.07,2.31-.39,4.61-.77,6.9-1.14,2.12-.34,4.24-.68,6.36-1.02,2.23-.35,4.46-.7,6.68-1.03,2.15-.33,4.3-.65,6.44-.97,2.18-.32,4.34-.63,6.5-.94,2.16-.31,4.31-.61,6.46-.91,2.08-.28,4.14-.56,6.21-.83,2.23-.29,4.45-.59,6.66-.87,1.91-.24,3.81-.47,5.71-.7,2.3-.28,4.6-.56,6.88-.83,1.77-.2,3.51-.39,5.26-.59,2.38-.26,4.76-.53,7.11-.78,1.48-.15,2.94-.29,4.42-.44,2.58-.26,5.18-.52,7.73-.76.24-.02.47-.04.7-.06,10.51-.96,20.69-1.72,30.51-2.28.85-.05,1.71-.11,2.55-.15,2.62-.14,5.18-.25,7.74-.36,1.03-.04,2.09-.1,3.11-.14,2.43-.09,4.81-.16,7.19-.23,1.1-.03,2.22-.07,3.31-.09,2.33-.05,4.6-.08,6.87-.1,1.07-.01,2.15-.03,3.21-.03,2.23,0,4.42,0,6.59.02,1.04,0,2.08.02,3.11.03,2.14.03,4.25.08,6.33.15.98.03,1.95.06,2.91.1,2.08.08,4.13.17,6.14.28.88.05,1.75.1,2.62.15,2.02.12,4,.26,5.94.42.8.06,1.58.14,2.36.21,1.94.17,3.85.36,5.7.57.7.08,1.37.17,2.05.25,1.89.23,3.75.47,5.54.73.53.08,1.04.17,1.57.25,1.87.29,3.72.6,5.48.94.31.06.59.13.9.19,15.51,3.08,26.53,7.85,31.61,14.58,0,0,41.65-224.57-23.72-279.49Z"/>
    <path class="cls-2" d="M364.71,470.68c200.16-34.67,369.2-100.28,486.53-117.31-.26-33.37-4.22-68.61-17.31-89.52-.92-1.37-1.81-2.83-2.8-4.02-1.03-1.36-2.11-2.65-3.23-3.87-1.24-1.31-2.51-2.58-3.88-3.67-60.98-48.51-207.96,36.34-398.24,73.24-86.9,16.85-170.55,34.09-190.62,14.29,0,0-19.96,98.61-4.85,153.11,41.59-6.03,87.65-14.16,134.4-22.26Z"/>
  </g>
  <path class="cls-5" d="M850.34,639.44l-3.77.53c-70.3,9.82-139.37,26.14-207.48,45.13-68.14,19.01-135.41,40.71-202.89,61.69,67.91-19.55,135.65-39.81,204.06-57.33,68.38-17.51,137.53-32.28,207.47-40.53l2.61-9.49Z"/>
  <g>
    <path class="cls-4" d="M495.48,358.35c.64.63,1.41,1.12,2.31,1.49.9.37,1.88.59,2.94.66,1.06.07,2.08-.01,3.06-.25,1.29-.31,2.41-.99,3.37-2.03.95-1.04,1.72-2.24,2.31-3.58.59-1.34.99-2.71,1.21-4.1.22-1.39.27-2.59.16-3.6-.35-2-1.21-3.4-2.58-4.21-1.37-.81-2.97-.99-4.82-.55-1.23.3-2.42.96-3.57,1.98-1.15,1.03-2.18,2.22-3.09,3.58-.91,1.36-1.59,2.79-2.04,4.3-.45,1.51-.59,2.89-.42,4.15.13.82.52,1.53,1.16,2.16Z"/>
    <path class="cls-4" d="M793.39,311.5c-.13-.59-.35-1.09-.64-1.51-.29-.42-.62-.64-.98-.65s-.7.4-1.03,1.26c-.85,2.27-2.22,4.45-4.11,6.53-1.9,2.09-3.97,4.13-6.24,6.14-1.8-2.77-4.07-5.4-6.81-7.89-2.74-2.49-5.27-5-7.6-7.52.99-3.34,1.79-6.8,2.41-10.38.61-3.58.71-6.88.28-9.89-.45-3.4-1.28-5.69-2.49-6.88-1.21-1.18-2.5-1.62-3.85-1.31-1.23.28-2.67,1.04-4.3,2.29-1.63,1.25-3.14,2.82-4.52,4.73-1.38,1.91-2.51,4.03-3.37,6.36-.86,2.34-1.11,4.73-.75,7.18.52,3.71,1.74,6.84,3.64,9.39,1.91,2.55,4.03,4.92,6.34,7.12-.16.43-.33.82-.51,1.19-.18.37-.32.72-.44,1.07-.02.05,0,.11-.02.16-.68,1.67-1.43,3.37-2.32,5.14-1.12,2.23-2.35,4.38-3.69,6.47-1.35,2.09-2.8,4-4.36,5.75-1.56,1.75-3.16,3.15-4.79,4.2,1.09-3.52,1.85-6.96,2.27-10.32.42-3.36.43-6.23.05-8.61-.22-1.7-.79-3.45-1.72-5.25-.93-1.79-2.09-3.36-3.49-4.71-1.41-1.35-3-2.36-4.8-3.03-1.79-.67-3.7-.76-5.73-.26-1.84.45-3.63,1.39-5.37,2.82-1.73,1.43-3.28,3.18-4.63,5.23-1.35,2.06-2.41,4.32-3.18,6.78-.53,1.7-.85,3.4-1.01,5.1-.22-.27-.44-.48-.68-.55-.35-.11-.68.27-.99,1.13-.68,1.73-1.44,3.7-2.3,5.9-.86,2.2-1.77,4.45-2.73,6.74-.96,2.29-1.96,4.56-3,6.81-1.04,2.25-2.04,4.27-2.99,6.07-.95,1.8-1.87,3.28-2.76,4.45-.88,1.17-1.63,1.82-2.25,1.98-.86.21-1.26-.6-1.19-2.44.2-2.33.48-5.4.84-9.21.36-3.8.74-7.92,1.14-12.36.4-4.43.82-8.96,1.28-13.57.45-4.61.87-8.89,1.26-12.83,2.76-1.21,5.26-2.25,7.48-3.13,2.23-.88,3.86-1.45,4.91-1.71,1.53-.38,2.71-.56,3.53-.53.82.03,1.47.09,1.96.2.48.11.86.24,1.13.4.27.16.62.19,1.05.08.49-.12.7-.58.64-1.38-.07-.8-.47-1.58-1.22-2.34-.74-.76-1.87-1.36-3.38-1.8-1.51-.44-3.49-.35-5.95.26-1.97.49-3.67.98-5.11,1.46-1.44.49-2.91,1.02-4.4,1.58.28-2.55.45-4.67.52-6.39.06-1.71.07-2.79.03-3.23-.09-.63-.53-1.27-1.31-1.92-.78-.65-1.74-1.24-2.89-1.78-1.14-.53-2.35-.98-3.61-1.35-1.27-.37-2.43-.59-3.49-.65-1.06-.06-1.91.05-2.56.34-.65.29-.91.81-.78,1.56.39,2.64.66,5.48.79,8.51.13,3.03.16,6.22.08,9.56-.92.23-1.87.48-2.84.75-.97.28-2.05.56-3.21.85-1.78.44-3.3.67-4.57.69-1.27.02-2.33-.06-3.19-.24-.86-.18-1.54-.35-2.04-.52-.5-.17-.87-.22-1.12-.16-.61.15-.8.78-.56,1.9.24,1.11.79,2.25,1.63,3.41.84,1.16,1.97,2.15,3.38,2.98,1.41.82,3.01,1.01,4.79.57.86-.21,1.92-.54,3.18-.98,1.26-.44,2.63-.95,4.12-1.51-.31,5.03-.75,10.03-1.31,14.99-.18,1.59-.35,3.12-.53,4.63-.11-.08-.22-.17-.34-.21-.35-.11-.68.27-.99,1.13-.98,2.59-2.16,5.67-3.52,9.24s-2.78,7.02-4.27,10.35c-1.48,3.34-2.92,6.22-4.3,8.65-1.38,2.43-2.57,3.77-3.55,4.01-.74.18-1.09-.45-1.06-1.89.12-1.6.33-3.54.6-5.82.28-2.28.56-4.69.85-7.2.28-2.52.59-5.04.9-7.56.32-2.52.58-4.87.79-7.04.21-2.17.37-4.02.48-5.55.11-1.53.13-2.57.05-3.14-.11-.69-.5-1.34-1.17-1.96-.68-.61-1.48-1.16-2.42-1.65-.94-.48-1.92-.86-2.97-1.12-1.04-.26-1.95-.36-2.72-.3-.14-.03-.39,0-.76.09-.18.05-.33.12-.44.21-.34.22-.55.4-.65.55-.8.72-1.7,1.88-2.71,3.46-1.01,1.59-2.06,3.43-3.17,5.53-1.11,2.1-2.24,4.36-3.4,6.76-1.16,2.41-2.25,4.77-3.27,7.08-1.02,2.31-1.98,4.47-2.88,6.49-.9,2.02-1.63,3.72-2.2,5.1.31-2.42.63-4.88.95-7.38.32-2.49.61-4.8.87-6.92s.43-3.95.53-5.51c.1-1.56.11-2.62.04-3.19-.17-.94-.88-1.82-2.13-2.65-1.25-.83-2.6-1.46-4.04-1.88-1.44-.42-2.72-.53-3.84-.31-1.12.21-1.57.88-1.36,2,.18,1.26.18,2.94-.01,5.04-.19,2.1-.48,4.41-.87,6.92-.07.47-.16.97-.23,1.45-.11-.07-.23-.14-.35-.17-.35-.08-.67.21-.96.87-.83,1.64-1.8,3.56-2.92,5.76-1.12,2.2-2.35,4.53-3.69,6.98-1.35,2.45-2.8,4.92-4.37,7.39-1.57,2.48-3.22,4.75-4.96,6.8-1.74,2.06-3.53,3.83-5.38,5.3-1.85,1.47-3.73,2.44-5.63,2.91-.86.21-1.57.05-2.13-.5-.56-.55-.96-1.36-1.19-2.44-.24-1.08-.35-2.39-.34-3.93.01-1.53.12-3.21.32-5.02.87.11,1.81.12,2.8.04.99-.08,2.1-.28,3.33-.58,2.09-.52,3.99-1.64,5.71-3.37,1.72-1.73,3.2-3.65,4.44-5.75,1.24-2.1,2.16-4.22,2.77-6.36.61-2.14.82-3.87.62-5.19-.26-1.3-.91-2.67-1.95-4.11-1.04-1.44-2.3-2.7-3.78-3.8-1.48-1.1-3.13-1.91-4.96-2.44-1.83-.52-3.6-.57-5.32-.15-1.35.34-2.74,1.17-4.17,2.5-1.43,1.33-2.8,2.99-4.09,4.98-1.3,1.98-2.48,4.27-3.53,6.84-.49,1.18-.92,2.4-1.33,3.64-.04-.02-.07-.05-.11-.07-.35-.11-.69.27-1,1.12-.62,1.72-1.34,3.68-2.17,5.91-.82,2.22-1.68,4.5-2.57,6.84-.89,2.34-1.81,4.66-2.74,6.97-.93,2.31-1.86,4.38-2.78,6.2-.92,1.82-1.79,3.34-2.6,4.54-.81,1.21-1.56,1.9-2.23,2.06-.74.18-1.09-.45-1.05-1.89.13-1.6.34-3.53.63-5.82.29-2.28.58-4.69.87-7.2.29-2.52.6-5.03.93-7.56.33-2.52.6-4.87.82-7.04.22-2.17.38-4.02.5-5.54.11-1.53.13-2.57.06-3.14-.12-.75-.57-1.46-1.35-2.11-.78-.65-1.68-1.22-2.71-1.68-1.03-.46-2.09-.82-3.19-1.07-1.1-.25-2.02-.29-2.76-.1l-.18.04c-.19.05-.3.11-.35.18-.41.17-.67.46-.76.87-.57.86-1.26,2.08-2.08,3.68-.81,1.6-1.68,3.44-2.6,5.52-.92,2.08-1.85,4.28-2.78,6.59-.93,2.31-1.84,4.59-2.72,6.82-.89,2.24-1.7,4.34-2.46,6.32-.75,1.98-1.36,3.61-1.83,4.89.3-2.22.62-4.6.94-7.12.33-2.52.62-4.91.88-7.15.26-2.25.46-4.23.59-5.96.13-1.72.14-2.93.04-3.62-.16-.94-.89-1.82-2.16-2.65-1.28-.83-2.62-1.46-4.03-1.89-1.41-.44-2.67-.55-3.8-.34-1.12.21-1.58.88-1.37,2l.02.09c-.46,1.03-1.04,2.34-1.72,3.94-.68,1.6-1.41,3.36-2.18,5.27-.77,1.92-1.54,3.93-2.33,6.04-.79,2.12-1.55,4.18-2.3,6.18-.75,2.01-1.43,3.88-2.04,5.63-.62,1.75-1.13,3.23-1.55,4.44.3-2.48.62-4.99.94-7.51.33-2.52.61-4.87.86-7.05.25-2.18.44-4.05.58-5.61.14-1.56.17-2.63.1-3.2-.16-.94-.89-1.83-2.17-2.69-1.28-.86-2.63-1.5-4.04-1.94-1.41-.44-2.67-.55-3.8-.34-1.12.21-1.58.88-1.37,2,.18,1.26.17,2.96-.02,5.09-.19,2.13-.5,4.47-.92,7.02-.07.4-.14.83-.21,1.24-.32-.11-.64.25-.95,1.11-.63,1.71-1.4,3.66-2.31,5.83-.91,2.17-1.85,4.42-2.82,6.73-.97,2.32-1.99,4.58-3.05,6.79-1.06,2.21-2.09,4.21-3.09,6.02-1,1.8-1.94,3.28-2.83,4.44-.89,1.16-1.68,1.82-2.35,1.98-.8.19-1.15-.6-1.06-2.38.15-1.53.35-3.35.59-5.46.24-2.11.51-4.3.8-6.59.29-2.28.59-4.58.88-6.9.29-2.31.54-4.46.75-6.43.21-1.97.37-3.67.48-5.09.11-1.42.13-2.42.06-2.99-.16-.94-.88-1.82-2.15-2.65-1.27-.83-2.62-1.47-4.02-1.91-1.41-.44-2.67-.56-3.79-.35-1.12.21-1.58.87-1.37,1.99.09.63,0,1.89-.26,3.77-.26,1.89-.6,4.12-1.02,6.69-.12.74-.25,1.52-.38,2.29-.04-.02-.08-.07-.12-.08-.35-.11-.69.26-1,1.12-.7,1.73-1.49,3.67-2.38,5.83-.89,2.16-1.82,4.4-2.8,6.71-.98,2.31-2.01,4.57-3.08,6.77-1.07,2.2-2.1,4.2-3.07,5.99-.98,1.79-1.91,3.26-2.81,4.42-.9,1.15-1.66,1.8-2.27,1.95-.86.2-1.24-.58-1.14-2.36.21-2.39.53-5.59.95-9.59.42-4,.89-8.29,1.4-12.86.51-4.57,1.02-9.23,1.53-13.96.51-4.73.96-9.08,1.36-13.05.4-3.96.71-7.3.95-10.02.24-2.72.32-4.37.25-4.93-.08-.63-.51-1.28-1.29-1.94-.77-.66-1.73-1.26-2.86-1.81-1.14-.54-2.33-1.01-3.6-1.39-1.26-.38-2.42-.63-3.49-.74-1.07-.11-1.92-.02-2.57.27-.65.28-.92.8-.8,1.56.73,5.29.95,11.23.65,17.84-.29,6.6-.8,13.18-1.53,19.72-.93-.63-1.96-1.28-3.09-1.95-1.13-.67-2.35-1.22-3.65-1.63-1.3-.41-2.68-.68-4.14-.82-1.46-.14-2.93-.04-4.41.31-1.23.29-2.42,1.3-3.57,3.04-1.15,1.73-2.25,3.88-3.31,6.44-1.05,2.56-2.01,5.33-2.86,8.33,0,.01,0,.02,0,.03-.05.1-.09.19-.14.31-1.04,2.57-2.27,5.63-3.71,9.16-1.43,3.54-2.93,6.96-4.48,10.26-1.55,3.31-3.04,6.16-4.48,8.56-1.43,2.4-2.64,3.72-3.63,3.94-.74.17-1.08-.47-1.02-1.91.16-1.59.4-3.53.72-5.81.32-2.28.65-4.68.99-7.19.34-2.51.69-5.02,1.06-7.54.37-2.52.68-4.86.93-7.02.25-2.17.45-4.01.59-5.54.14-1.52.18-2.57.11-3.14-.09-.69-.47-1.35-1.13-1.98-.66-.63-1.46-1.19-2.38-1.7-.93-.5-1.91-.9-2.95-1.18-1.04-.28-1.94-.4-2.71-.36-.14-.03-.39,0-.76.08-.19.04-.33.11-.44.2-.34.21-.56.39-.66.54-.81.71-1.74,1.84-2.78,3.41-1.04,1.57-2.13,3.39-3.28,5.47-1.15,2.08-2.33,4.31-3.54,6.69-1.21,2.38-2.35,4.72-3.42,7.01-1.07,2.29-2.07,4.43-3.01,6.43-.94,2-1.71,3.68-2.31,5.05.36-2.42.73-4.87,1.1-7.36.37-2.49.71-4.78,1.01-6.9.3-2.11.51-3.94.65-5.5.13-1.55.17-2.62.1-3.19-.15-.94-.84-1.84-2.07-2.69-1.23-.85-2.57-1.51-4-1.96s-2.71-.58-3.84-.39c-1.12.19-1.59.85-1.4,1.97.16,1.26.12,2.94-.12,5.04-.24,2.1-.57,4.4-1.01,6.9-.07.38-.14.78-.21,1.16-.17.16-.34.43-.49.85-.85,2.06-1.87,4.19-3.04,6.38-1.18,2.2-2.47,4.32-3.87,6.37-1.4,2.05-2.91,3.93-4.51,5.63-1.61,1.71-3.24,3.06-4.9,4.07,1.19-3.49,2.04-6.91,2.55-10.26.51-3.35.6-6.21.28-8.6-.17-1.71-.7-3.47-1.58-5.29-.88-1.82-2-3.42-3.36-4.81-1.37-1.39-2.94-2.44-4.71-3.16-1.77-.72-3.68-.86-5.72-.42-1.86.4-3.67,1.29-5.44,2.68-1.77,1.39-3.36,3.09-4.77,5.11-1.41,2.02-2.53,4.25-3.36,6.69-.83,2.45-1.27,4.9-1.32,7.37-.08.17-.16.35-.24.52-.25-.25-.5-.47-.76-.64-.44-.3-.84-.45-1.2-.45-.35,0-.49.22-.4.66.12.62-.08,1.74-.61,3.36-.53,1.62-1.34,3.48-2.45,5.6-1.1,2.12-2.48,4.36-4.11,6.74-1.63,2.38-3.49,4.62-5.56,6.73-2.07,2.11-4.38,3.95-6.9,5.54-2.53,1.59-5.22,2.65-8.08,3.2-3.23.62-5.78.12-7.64-1.52-1.86-1.64-3.17-3.99-3.93-7.07-.76-3.08-1.01-6.72-.76-10.92.25-4.21.86-8.57,1.82-13.11.96-4.54,2.22-9.03,3.77-13.49,1.56-4.46,3.3-8.48,5.25-12.08,1.95-3.6,3.99-6.6,6.13-9.02,2.14-2.41,4.3-3.83,6.48-4.25.75-.14,1.19.16,1.33.9s.1,1.78-.12,3.12c-.23,1.33-.57,2.88-1.04,4.65-.46,1.77-.9,3.57-1.32,5.43-.41,1.85-.74,3.69-.97,5.5-.23,1.82-.24,3.41-.04,4.79.27,2.07.89,3.69,1.86,4.86.97,1.17,1.96,1.97,2.98,2.42,1.02.45,1.92.6,2.7.45.78-.15,1.11-.5,1-1.06-.16-.81-.21-2-.16-3.59.05-1.59.14-3.35.29-5.27.14-1.93.32-3.93.53-6,.21-2.07.4-4.02.56-5.86.16-1.83.27-3.45.32-4.85.05-1.39.05-2.38,0-2.95-.57-3.95-1.74-6.75-3.51-8.41-1.77-1.65-4.33-2.16-7.69-1.51-3.54.68-7.08,2.56-10.61,5.63-3.53,3.07-6.79,6.86-9.79,11.36-2.99,4.51-5.65,9.5-7.98,14.98-2.32,5.48-4.07,10.94-5.24,16.38-1.17,5.45-1.66,10.66-1.47,15.65.19,4.99,1.31,9.25,3.34,12.79,2.04,3.54,5.06,6.11,9.08,7.72,4.02,1.61,9.29,1.78,15.81.52,2.92-.56,5.71-1.65,8.36-3.26,2.65-1.61,5.14-3.49,7.46-5.65,2.32-2.16,4.41-4.49,6.28-7.01.93-1.26,1.79-2.5,2.58-3.73.21,1.39.74,2.85,1.62,4.36.92,1.58,2.13,2.99,3.63,4.22,1.49,1.23,3.2,2.16,5.11,2.78,1.91.62,3.98.69,6.21.21,2.66-.57,5.07-2,7.23-4.28,2.16-2.28,4.04-4.98,5.63-8.11,2.95-1.02,5.57-2.66,7.87-4.9,2.3-2.24,4.32-4.64,6.07-7.18,1.14-1.66,2.15-3.32,3.05-4.98-.12.63-.25,1.27-.37,1.89-.48,2.45-.85,4.67-1.11,6.68-.26,2-.29,3.57-.1,4.69.26,1.69.98,3.04,2.18,4.03,1.2.99,2.5,1.72,3.9,2.18,1.4.46,2.72.68,3.95.66,1.23-.02,1.99-.23,2.29-.62.35-.47.4-.93.17-1.4-.24-.46-.41-1.11-.53-1.92.22-1.02.72-2.47,1.5-4.33.78-1.86,1.74-3.96,2.9-6.3,1.15-2.34,2.41-4.81,3.76-7.43,1.35-2.61,2.7-5.17,4.04-7.68,1.34-2.51,2.62-4.88,3.84-7.1,1.21-2.22,2.27-4.08,3.16-5.58-.41,2.76-.92,5.68-1.51,8.76-.6,3.09-1.14,6.05-1.63,8.89-.49,2.84-.89,5.43-1.2,7.77-.31,2.34-.36,4.11-.16,5.29.23,1.57.89,2.85,1.99,3.83,1.1.98,2.3,1.71,3.61,2.2,1.31.48,2.59.74,3.83.78,1.24.04,2.09-.09,2.54-.38,1.36-.57,2.76-1.68,4.2-3.34,1.44-1.66,2.83-3.6,4.18-5.82,1.34-2.22,2.63-4.62,3.86-7.2.66-1.39,1.29-2.76,1.9-4.1-.14,1.72-.13,3.09.04,4.05.22,1.77.95,3.25,2.17,4.46,1.23,1.21,2.65,2.15,4.28,2.84,1.63.69,3.3,1.12,5.04,1.3,1.73.18,3.21.12,4.44-.17.55-.13,1.18-.59,1.87-1.37.69-.78,1.43-1.78,2.21-3.01.78-1.22,1.58-2.61,2.38-4.17.8-1.55,1.59-3.17,2.36-4.85-.11,1.46-.13,2.6-.07,3.43.27,1.69.98,2.92,2.14,3.69,1.16.77,2.44,1.26,3.86,1.48,1.42.22,2.76.27,4.04.17,1.27-.11,2.16-.22,2.65-.33l.65-.15c1.37-.52,2.75-1.56,4.14-3.12,1.39-1.56,2.75-3.44,4.08-5.64,1.33-2.2,2.59-4.56,3.79-7.09,1.19-2.52,2.3-4.98,3.33-7.37.2-.47.37-.89.56-1.34-.03.23-.07.46-.11.69-.41,2.74-.73,5.2-.95,7.4-.22,2.2-.22,3.86-.02,4.98.28,1.69,1,2.92,2.16,3.68,1.16.76,2.45,1.25,3.87,1.46,1.42.21,2.76.26,4.04.15,1.27-.11,2.16-.23,2.65-.35l.55-.13c1.37-.53,2.75-1.57,4.12-3.14,1.38-1.57,2.73-3.46,4.05-5.66,1.32-2.21,2.57-4.57,3.75-7.1,1.18-2.53,2.26-4.99,3.25-7.37.11-.26.2-.5.3-.75,0,.05-.02.11-.03.16-.43,2.51-.75,4.79-.96,6.83-.21,2.04-.22,3.62,0,4.74.28,1.69,1.03,3.02,2.25,3.99,1.22.97,2.53,1.68,3.94,2.11,1.41.44,2.73.63,3.95.59,1.23-.04,1.98-.29,2.26-.75.23-.38.31-.71.25-.99-.07-.28-.19-.65-.38-1.13.51-1.89,1.28-4.34,2.3-7.36,1.02-3.02,2.14-6.21,3.37-9.57,1.23-3.36,2.45-6.67,3.67-9.94,1.22-3.26,2.29-6.08,3.2-8.46-.3,1.96-.6,3.93-.9,5.89-.3,1.96-.57,3.84-.82,5.62-.25,1.79-.42,3.42-.51,4.91-.09,1.49-.05,2.73.13,3.73.22,1.7.9,3.05,2.02,4.05,1.12.99,2.34,1.72,3.66,2.18,1.32.46,2.56.68,3.73.65,1.17-.03,1.9-.24,2.19-.63.19-.31.26-.6.22-.89s-.09-.58-.17-.89c.37-1.13,1-2.74,1.9-4.81.89-2.08,1.95-4.42,3.16-7.03,1.22-2.61,2.53-5.42,3.94-8.44,1.41-3.02,2.87-6.11,4.37-9.28-.41,2.58-.84,5.21-1.29,7.89-.45,2.68-.86,5.21-1.22,7.58-.36,2.37-.64,4.52-.81,6.45-.18,1.93-.17,3.43.03,4.49.25,1.57.94,2.83,2.05,3.8,1.12.97,2.33,1.68,3.65,2.13,1.32.46,2.6.7,3.84.72,1.24.02,2.09-.12,2.53-.43,1.35-.59,2.72-1.74,4.09-3.45,1.37-1.7,2.69-3.69,3.96-5.96,1.27-2.27,2.48-4.71,3.62-7.34,1.03-2.36,1.96-4.61,2.82-6.8,0,1.97.14,3.9.44,5.79.15,1.14.85,2.3,2.09,3.49,1.24,1.19,2.72,2.24,4.45,3.15,1.73.91,3.53,1.57,5.43,1.98,1.89.41,3.61.42,5.14.04,2.09-.52,4.17-1.65,6.24-3.41,2.07-1.75,4.06-3.86,5.96-6.32,1.9-2.46,3.69-5.09,5.38-7.89,1.68-2.8,3.19-5.52,4.52-8.16.93-1.84,1.75-3.55,2.48-5.16-.27,1.51-.53,2.98-.78,4.39-.43,2.45-.75,4.69-.97,6.7-.22,2.01-.22,3.57,0,4.69.29,1.69,1.04,3.02,2.26,3.98,1.22.97,2.54,1.67,3.95,2.1,1.41.43,2.73.62,3.96.58,1.23-.05,1.99-.27,2.28-.67.34-.48.38-.94.14-1.4-.25-.46-.44-1.1-.57-1.91.2-1.03.67-2.48,1.41-4.36.74-1.88,1.66-4,2.77-6.36,1.1-2.36,2.31-4.86,3.61-7.5,1.3-2.64,2.59-5.23,3.88-7.77,1.29-2.54,2.52-4.93,3.69-7.18,1.17-2.25,2.18-4.13,3.04-5.65-.35,2.76-.8,5.69-1.33,8.79-.53,3.1-1.02,6.07-1.45,8.92-.43,2.85-.78,5.44-1.04,7.79-.26,2.35-.28,4.11-.05,5.29.26,1.57.95,2.83,2.07,3.79,1.12.96,2.34,1.67,3.66,2.12,1.32.45,2.6.69,3.84.71,1.24.02,2.09-.13,2.53-.44,1.35-.6,2.73-1.74,4.13-3.43,1.4-1.69,2.76-3.65,4.05-5.9,1.3-2.25,2.54-4.67,3.71-7.28,1.18-2.61,2.26-5.13,3.25-7.56.57-1.39,1.08-2.7,1.55-3.95-.38,3.31-.7,6.25-.94,8.78-.29,3.04-.36,5.12-.21,6.26.29,1.69,1.02,2.91,2.18,3.66,1.17.75,2.46,1.25,3.89,1.48,1.43.23,2.78.29,4.05.17,1.27-.12,2.16-.24,2.65-.36.12-.03.23-.07.31-.13.08-.05.19-.1.31-.13,1.38-.47,2.75-1.51,4.11-3.12,1.36-1.61,2.7-3.51,4.01-5.69,1.32-2.18,2.55-4.54,3.72-7.08.73-1.59,1.41-3.14,2.08-4.67-.06.94-.06,1.82.08,2.56.22,1.44.82,2.94,1.78,4.5.97,1.56,2.21,2.93,3.74,4.12,1.53,1.19,3.26,2.07,5.19,2.64,1.93.57,4,.59,6.21.05,2.64-.65,5.01-2.13,7.11-4.47,2.1-2.33,3.9-5.09,5.41-8.26,2.92-1.1,5.5-2.81,7.74-5.11,2.24-2.3,4.2-4.75,5.88-7.34,1.68-2.59,3.07-5.16,4.17-7.71.82-1.88,1.52-3.52,2.11-4.93.22-.01.38-.14.46-.4.11-.35.26-.72.43-1.12.17-.39.36-.81.59-1.25,1.9,1.78,3.61,3.66,5.13,5.65,1.52,1.99,2.68,4.29,3.47,6.9-1.41,1.23-2.72,2.44-3.94,3.62-1.22,1.19-2.27,2.37-3.14,3.54-.87,1.17-1.53,2.34-1.97,3.51-.45,1.17-.57,2.32-.38,3.45.12.82.45,1.62.99,2.4.54.79,1.16,1.47,1.88,2.05.72.58,1.48,1.03,2.3,1.33.81.3,1.59.37,2.33.2,2.22-.51,4.27-1.54,6.15-3.1,1.88-1.56,3.48-3.37,4.8-5.42,1.32-2.05,2.3-4.21,2.96-6.46.65-2.26.86-4.33.63-6.23-.24-1.63-.7-3.05-1.36-4.27,2.6-2.28,4.97-4.54,7.12-6.78,2.15-2.24,3.59-4.45,4.33-6.63.08-.21.06-.61-.08-1.2ZM604.71,357.52c.6-2.04,1.24-3.86,1.92-5.46.68-1.6,1.36-2.91,2.06-3.93.69-1.02,1.38-1.61,2.05-1.78.92-.23,1.47.34,1.64,1.69.17,1.36-.07,3.02-.72,4.97-.65,1.96-1.69,3.96-3.1,6-1.42,2.05-3.25,3.64-5.51,4.79.51-2.15,1.07-4.24,1.67-6.28ZM356.74,440.83c-1.03,1.09-2.16,1.78-3.39,2.04-.74.16-1.25.04-1.53-.35-.28-.39-.39-.98-.33-1.77.06-.79.24-1.75.54-2.88.3-1.13.68-2.33,1.12-3.59,1.94,1.2,4.09,2.03,6.46,2.49-.88,1.61-1.84,2.97-2.86,4.06ZM365.35,414.8c-.11,1.61-.3,3.35-.57,5.22-.28,1.87-.67,3.82-1.17,5.83-.5,2.02-1.08,3.94-1.72,5.76-2.39-.26-4.66-.9-6.82-1.93.55-1.35,1.12-2.7,1.7-4.05.58-1.35,1.09-2.61,1.52-3.77.43-1.16.78-2.17,1.04-3.04.27-.87.38-1.52.35-1.97-.11-.82-.57-1.51-1.37-2.08-.8-.57-1.76-1.01-2.86-1.33-1.1-.31-2.2-.53-3.29-.65-1.09-.12-1.99-.14-2.68-.05.52-1.47,1.18-2.86,1.97-4.16.79-1.3,1.65-2.46,2.6-3.47.95-1.01,1.93-1.87,2.94-2.57,1.01-.7,2.04-1.17,3.1-1.4,1.61-.35,2.76.21,3.47,1.68.7,1.47,1.3,4.09,1.79,7.87.11,1.14.12,2.52.01,4.12ZM465.3,389.34c-.11,1.33-.27,2.63-.49,3.92-.5,1.48-1.07,3.16-1.73,5.04-.66,1.88-1.36,3.8-2.1,5.76-.74,1.96-1.49,3.88-2.25,5.75-.76,1.87-1.52,3.56-2.26,5.07-.75,1.51-1.46,2.75-2.14,3.72-.68.97-1.27,1.52-1.76,1.63-.68.16-1.08-.56-1.19-2.16-.12-1.6-.03-3.65.25-6.15.29-2.51.74-5.26,1.36-8.27.62-3.01,1.34-5.83,2.15-8.45.81-2.63,1.66-4.86,2.56-6.7.9-1.84,1.78-2.86,2.64-3.06,1.05-.25,2.03-.36,2.94-.35.91.01,1.74.09,2.49.24-.2,1.35-.36,2.69-.47,4.01ZM728.13,351.9c-1,1.12-2.11,1.83-3.34,2.13-.74.18-1.25.08-1.54-.31-.29-.38-.42-.97-.38-1.76.03-.79.19-1.76.46-2.9.28-1.14.62-2.35,1.02-3.62,1.97,1.15,4.15,1.92,6.53,2.31-.84,1.64-1.76,3.02-2.75,4.14ZM736.03,325.65c-.06,1.61-.21,3.36-.43,5.23-.23,1.88-.56,3.83-1.01,5.86-.45,2.03-.97,3.97-1.56,5.8-2.39-.2-4.68-.78-6.87-1.74.51-1.36,1.04-2.73,1.59-4.1.54-1.37,1.02-2.64,1.41-3.81.4-1.17.72-2.19.96-3.07.24-.87.34-1.53.3-1.98-.13-.81-.61-1.49-1.43-2.04-.82-.55-1.78-.96-2.89-1.25-1.11-.28-2.22-.47-3.31-.56-1.1-.09-1.99-.08-2.68.02.48-1.49,1.1-2.89,1.85-4.21.75-1.32,1.59-2.5,2.51-3.54.92-1.04,1.87-1.92,2.87-2.65.99-.73,2.01-1.22,3.06-1.48,1.6-.39,2.77.14,3.51,1.58.74,1.45,1.41,4.05,2.01,7.81.15,1.14.19,2.51.13,4.12ZM765.45,296.06c-.5,2.94-1.16,5.86-1.99,8.77-.93-1.22-1.69-2.45-2.3-3.71-.61-1.26-1.01-2.58-1.19-3.96-.14-1.2-.18-2.55-.1-4.07.08-1.51.25-2.96.52-4.35.27-1.39.61-2.59,1.03-3.59.42-1,.91-1.57,1.46-1.7.68-.15,1.25.07,1.71.68.46.61.83,1.92,1.09,3.94.35,2.39.27,5.05-.23,7.98ZM771.49,338.43c-.06,1.18-.24,2.31-.54,3.38-.31,1.08-.73,2.01-1.26,2.82-.53.8-1.23,1.3-2.09,1.5-.31.07-.61-.04-.9-.33-.29-.29-.46-.66-.49-1.1-.2-1.45.21-2.95,1.21-4.51,1.01-1.56,2.36-3.18,4.05-4.86.07.89.08,1.93.03,3.11Z"/>
  </g>
  <g>
    <path class="cls-3" d="M118.12,588.29c0-6.42,4.05-10.01,9.49-10.07,5.44-.06,9.48,3.43,9.48,9.85v64.47c9-.21,13.51-.38,22.51-.82,6.45-.32,9.29,4.44,9.1,8.75-.18,4.19-3.54,8.7-9.1,8.97-12.65.63-18.97.83-31.61.98-6.2.08-9.87-4.05-9.87-10.47v-71.66Z"/>
    <path class="cls-3" d="M195.87,584.6c2.15-6.1,7.08-11.29,13.53-11.95,6.7-.69,11.38,3.27,13.53,9.19,9.91,26.8,14.87,40.14,24.78,66.72.76,1.95,1.01,3.71,1.01,4.61,0,5.01-4.05,9.04-8.73,9.65-5.31.7-7.96-1.81-9.23-5.5-1.52-4.64-2.28-6.97-3.79-11.61-14.06,1.68-21.09,2.4-35.15,3.59-1.52,4.91-2.28,7.36-3.79,12.26-1.27,4.08-3.92,7.13-9.11,7.49-5.06.36-9.36-3.24-9.36-8.37,0-2.05.63-3.63.88-4.29,10.17-28.57,15.25-42.93,25.42-71.77ZM197.26,631.1c9.61-.87,14.42-1.36,24.03-2.45-4.7-14.36-7.06-21.56-11.76-35.97-.1.01-.15.02-.25.03-4.81,15.39-7.21,23.07-12.01,38.4Z"/>
    <path class="cls-3" d="M288.52,574.42c0-6.42,3.16-11.7,9.87-12.9,12.54-2.24,18.82-3.44,31.36-5.95,6.07-1.21,8.98,2.54,8.98,7.04s-3.04,9.49-8.98,10.68c-8.9,1.78-13.35,2.64-22.26,4.29v18.75c8.3-1.54,12.44-2.33,20.74-3.99,6.2-1.23,9.23,2.5,9.23,7s-3.16,9.52-9.23,10.72c-8.29,1.65-12.44,2.45-20.74,3.99v19.52c9.36-1.73,14.04-2.64,23.39-4.52,6.07-1.22,8.98,2.54,8.98,7.03s-3.04,9.5-8.98,10.69c-13.05,2.62-19.57,3.87-32.62,6.2-5.57.99-9.74-2.15-9.74-7.93v-70.64Z"/>
    <path class="cls-3" d="M386.02,541.86c9.23-2.14,27.19-3.37,27.19,7.93,0,4.62-3.16,9.38-7.84,10.5-5.18,1.24-8.72-2.39-19.35.07-15.68,3.63-23.77,18.84-23.77,34.51s8.22,26.62,23.77,23.02c10.62-2.46,14.92-8.89,20.11-10.14,5.69-1.37,8.35,3.76,8.35,6.71,0,12.33-19.09,19.75-28.45,21.91-25.67,5.94-43.5-11.1-43.5-37.68s17.7-50.87,43.5-56.83Z"/>
    <path class="cls-3" d="M415.94,582c0-26.71,17.7-51.55,43.5-58.21,25.42-6.57,43.5,9.75,43.5,35.82s-17.58,52-43.5,58.7c-25.67,6.63-43.5-9.73-43.5-36.31ZM483.2,564.84c0-15.54-7.97-27.41-23.77-23.33-15.81,4.08-23.77,20.06-23.77,35.6s7.71,27.62,23.77,23.48c16.06-4.15,23.77-20.08,23.77-35.74Z"/>
    <path class="cls-3" d="M510.78,521.04c0-6.42,4.05-11.1,9.49-12.56,2.4-.65,6.32.22,7.97,2.09,16.03,17.41,24.05,26.1,40.08,43.51.1-.03.15-.04.26-.07v-48.54c0-6.42,4.04-11.11,9.48-12.57,5.44-1.46,9.48,1.05,9.48,7.47v72.94c0,6.42-4.05,11.1-9.48,12.56-2.4.65-6.2-.26-7.97-2.09-16.03-17.15-24.05-25.71-40.08-42.86-.1.03-.15.04-.25.07v47.9c0,6.42-4.05,11.11-9.48,12.57-5.44,1.46-9.49-1.05-9.49-7.47v-72.94Z"/>
    <path class="cls-3" d="M595.39,534.74c0-26.71,17.7-52.04,43.5-58.7,25.42-6.57,43.5,10.24,43.5,36.31s-17.58,51.51-43.5,58.21c-25.67,6.63-43.5-9.23-43.5-35.81ZM662.65,517.24c0-15.54-7.97-27.56-23.77-23.48-15.81,4.08-23.77,20.2-23.77,35.74s7.71,27.48,23.77,23.33c16.06-4.15,23.77-19.93,23.77-35.6ZM642.8,449.21c1.9-1.26,3.41-2.16,4.8-2.52,3.79-.97,6.83,2.75,6.83,6.22,0,3.72-1.64,6.71-5.18,8.9-5.67,3.71-8.5,5.57-14.16,9.3-3.67,2.23-2.53,1.94-5.06,2.6-3.79.99-6.7-3.13-6.7-7.62,0-1.92,1.39-4.35,3.54-6.06.41-.31.61-.47,1.01-.78,5.97-4.02,8.95-6.03,14.92-10.03Z"/>
    <path class="cls-3" d="M697.73,472.05c.76-4.8,5.69-11.24,12.39-12.8,6.32-1.47,11.25,2.04,12.64,6.35,5.97,18.99,8.95,28.5,14.92,47.54.1-.02.15-.03.25-.06,5.97-21.64,8.95-32.45,14.92-54.05,1.39-4.91,6.32-10.57,12.64-11.85,6.7-1.35,11.63,2.96,12.4,7.43,4.7,27.75,7.05,41.64,11.76,69.42.13.75.13,1.52.13,2.16,0,5.65-4.05,9.99-9.1,10.97-6.45,1.24-8.98-1.2-9.86-7.06-2.98-20.31-4.48-30.47-7.46-50.77-.1.02-.15.03-.25.05-6.07,22.76-9.11,34.15-15.17,56.97-.88,3.27-3.29,8.14-10.11,9.63-6.83,1.49-9.23-2.33-10.12-5.21-6.07-20.17-9.1-30.24-15.17-50.36-.1.02-.15.04-.25.06-2.98,21.6-4.48,32.4-7.46,54.01-.88,6.24-3.41,9.78-9.86,11.33-5.06,1.21-9.1-1.4-9.1-7.05,0-.64,0-1.41.13-2.22,4.7-29.81,7.06-44.7,11.76-74.48Z"/>
    <path class="cls-3" d="M798.48,450.89c0-6.42,4.05-10.75,9.49-11.69,5.44-.94,9.48,1.99,9.48,8.41v72.94c0,6.42-4.05,10.68-9.48,11.62-5.44.94-9.49-1.92-9.49-8.34v-72.94Z"/>
    <path class="cls-3" d="M868.98,429.4c9.23-1.12,27.19.14,27.19,11.44,0,4.62-3.16,8.9-7.84,9.38-5.18.53-8.72-3.61-19.35-2.32-15.68,1.9-23.77,16.62-23.77,32.29s8.22,27.13,23.77,25.24c10.62-1.29,14.92-7.11,20.11-7.64,5.69-.58,8.35,4.96,8.35,7.91,0,12.33-19.09,17.08-28.45,18.22-25.67,3.11-43.5-14.56-43.5-41.14s17.7-50.25,43.5-53.38Z"/>
    <path class="cls-3" d="M927.34,434.66c2.15-6.04,7.08-11.1,13.53-11.4,6.7-.32,11.38,4.03,13.53,10.13,9.91,27.63,14.87,41.52,24.78,69.45.76,2.05,1.01,3.85,1.01,4.75,0,5.01-4.05,8.47-8.73,8.52-5.31.06-7.96-2.7-9.23-6.52-1.52-4.8-2.28-7.19-3.79-11.98-14.06.37-21.09.71-35.15,1.65-1.52,4.88-2.28,7.32-3.79,12.2-1.27,4.07-3.92,7.07-9.11,7.49-5.06.41-9.36-3.06-9.36-8.19,0-2.05.63-3.65.88-4.32,10.17-28.85,15.25-43.21,25.42-71.79ZM928.73,481.19c9.61-.58,14.42-.81,24.03-1.13-4.7-14.74-7.06-22.09-11.76-36.77-.1,0-.15,0-.25.01-4.81,15.12-7.21,22.7-12.01,37.89Z"/>
  </g>
  <g>
    <g>
      <path class="cls-5" d="M424.84,657.5c6.2-1.56,10.82-1.54,13.91.37,2.45,1.57,4.24,4.44,4.34,8.7.13,5.43-2.02,10.03-5.72,13.61-3.59,3.55-8.41,5.9-14.42,7.4l-11.57,2.91-.03-1.22c4.2-1.33,4.57-1.7,4.48-5.55l-.43-18.15c-.1-3.89-.49-3.98-4.26-3.3l-.03-1.31,13.72-3.45ZM420.03,682.35c.08,3.44,1.71,3.9,5.28,3,9.13-2.3,13.19-9.7,13.01-16.94-.11-4.66-2.07-8.22-6.03-9.37-2.23-.76-5.07-.59-8.34.23-2.05.51-3.31,1.06-3.8,1.5-.48.44-.62.97-.57,2.74l.45,18.83Z"/>
      <path class="cls-5" d="M476.56,666.89c-.26,1.57-1.13,6.07-1.54,7.59l-23.54,5.92-.03-1.27c4.45-1.43,4.82-1.89,4.74-5.56l-.44-18.02c-.09-4.08-.48-4.11-4.3-3.47l-.03-1.27,21.78-5.48c.02,1.13.34,4.15.54,6.42l-1.41.58c-.48-1.79-1-2.66-1.66-3.5-.7-.78-2.02-.76-5.55.12l-3.71.94c-1.51.38-1.61.49-1.57,1.85l.24,10.27,4.59-1.15c4.4-1.11,4.63-1.53,5.2-4.72l1.41-.36.2,8.7-1.41.36c-.72-3.1-1.06-3.29-5.31-2.22l-4.63,1.17.2,8.56c.05,2.13.36,3.01,1.26,3.37.94.31,2.65-.08,5.09-.69,3.71-.93,5.06-1.64,6.11-3.09.81-1.11,1.7-2.89,2.29-4.86l1.46-.18Z"/>
      <path class="cls-5" d="M500.67,645.34c-.94-2.68-2.29-5.48-6.54-4.41-3.76.94-5.36,3.9-5.3,6.34.08,3.3,2.45,4.25,6.36,5.14,3.85.85,8.54,1.81,8.66,6.88.11,4.76-4.14,9.65-10.64,11.29-1.99.5-3.57.54-4.8.52-1.23-.1-1.97-.23-2.42-.35-.42-.85-1.14-4.59-1.49-6.69l1.41-.68c.84,2.57,3.16,6.59,8.18,5.32,3.66-.92,5.81-3.6,5.74-6.91-.08-3.35-2.81-4.26-6.51-5.15-3.17-.75-8.15-1.78-8.27-6.89-.11-4.35,3.56-9.01,9.87-10.59,2.25-.57,4.32-.58,6.17-.51.24,1.58.53,3.29.99,6.04l-1.42.63Z"/>
      <path class="cls-5" d="M525.15,632.26c6.2-1.56,10.82-1.54,13.91.37,2.45,1.57,4.24,4.44,4.34,8.7.13,5.43-2.02,10.03-5.72,13.6-3.59,3.55-8.41,5.9-14.42,7.41l-11.57,2.91-.03-1.22c4.2-1.33,4.57-1.7,4.48-5.55l-.43-18.15c-.1-3.89-.49-3.98-4.26-3.3l-.03-1.31,13.72-3.46ZM520.34,657.11c.08,3.44,1.71,3.9,5.28,3,9.13-2.3,13.19-9.7,13.01-16.94-.11-4.66-2.07-8.22-6.03-9.37-2.23-.76-5.07-.59-8.35.23-2.05.52-3.31,1.06-3.79,1.5-.48.44-.62.98-.57,2.74l.45,18.83Z"/>
      <path class="cls-5" d="M576.88,641.65c-.26,1.57-1.13,6.07-1.54,7.59l-23.54,5.92-.03-1.27c4.45-1.44,4.82-1.89,4.74-5.56l-.44-18.02c-.09-4.08-.48-4.12-4.31-3.47l-.03-1.27,21.78-5.48c.03,1.13.34,4.15.54,6.43l-1.4.58c-.49-1.79-1-2.66-1.66-3.5-.7-.78-2.03-.77-5.55.12l-3.71.93c-1.51.38-1.61.5-1.58,1.86l.25,10.27,4.59-1.15c4.4-1.11,4.63-1.53,5.2-4.73l1.41-.35.2,8.7-1.41.35c-.72-3.1-1.06-3.28-5.31-2.22l-4.64,1.17.21,8.56c.05,2.13.36,3,1.26,3.37.94.31,2.65-.08,5.09-.69,3.71-.93,5.06-1.64,6.11-3.09.81-1.11,1.7-2.89,2.29-4.86l1.46-.18Z"/>
      <path class="cls-5" d="M604.25,641.96l-.03-1.22c4.44-1.43,4.68-1.86,4.6-5.12l-.42-17.43c-.06-2.35-.26-2.53-2.42-2.08l-2.35.5-.02-1.04c3.12-1.28,5.98-2.87,8.64-4.54l.57,23.59c.08,3.26.37,3.55,4.82,2.75l.03,1.22-13.44,3.38Z"/>
      <path class="cls-5" d="M648.3,613.34c.2,8.33-4.6,15.46-11.13,19.56-2.61,1.66-5.58,2.86-6.8,3.17l-.27-1.3c6.95-2.84,12.17-8.71,13.62-16l-3.24,2.45c-1.06.81-1.98,1.23-2.91,1.46-5.18,1.3-8.83-1.33-8.94-6.09-.1-4.34,3.43-10.56,9.74-12.15,6.11-1.53,9.79,2.73,9.94,8.88ZM632.79,613.97c.1,3.98,2.62,6.67,6.72,5.64,1.71-.43,3.37-1.39,4.37-2.37.12-1.03.15-2.14.13-3.04-.1-3.98-1.5-9.27-6.24-8.08-3.76.95-5.03,5.19-4.97,7.86Z"/>
      <path class="cls-5" d="M675.07,601.97c.03,1.31-.43,2.74-1.33,3.97-.33.49-1.62,1.91-3.78,3.87,3.4.92,6.54,2.32,6.63,6.26.13,5.3-5.32,9.59-9.47,10.63-5.22,1.32-9.44-.45-9.56-5.29-.05-2.08,1.05-3.64,2.1-4.86.76-.88,2.6-2.57,4.23-3.98-3.22-.88-5.37-2.52-5.45-5.68-.09-3.8,3.29-8.3,8.52-9.62,4.63-1.16,8.02,1.03,8.11,4.7ZM672.71,618.22c-.08-3.4-3.6-4.47-7.4-5.29-2.31,2.04-3.91,4.72-3.86,7.21.11,4.17,3.04,5.75,6.11,4.98,2.98-.75,5.23-3.41,5.15-6.9ZM662.06,604.65c.08,3.34,3,4.11,6.51,4.82,1.63-1.64,2.91-3.65,2.85-6.36-.09-3.8-2.67-4.84-4.92-4.28-2.88.73-4.48,3.5-4.43,5.81Z"/>
      <path class="cls-5" d="M693.39,602.41c1.06-.72,2.08-1.3,3.06-1.54,5.22-1.31,8.88,1.5,8.99,6.17.13,5.39-3.91,11.01-9.77,12.48-5.71,1.44-10.12-1.83-10.29-8.8-.23-9.91,7.06-16.89,12.2-19.96,1.94-1.13,4.27-2.22,6.22-3.02l.38,1.36c-1.61.68-3.49,1.7-5.28,2.92-2.95,2.06-7.43,6.06-8.74,12.71l3.24-2.32ZM689.95,606.33c-.23.92-.25,2.02-.22,3.2.13,5.43,2.72,9.25,6.73,8.24,3.8-.96,4.89-5.06,4.82-8.05-.09-3.76-2.23-6.96-6.68-5.84-1.85.46-3.5,1.56-4.66,2.45Z"/>
    </g>
    <g>
      <path class="cls-5" d="M389.73,685.04l-93.45,20.36,93.3-26.63c1.86-.53,3.46.43,3.57,2.14.11,1.71-1.31,3.53-3.17,4.06-.08.02-.17.04-.24.06Z"/>
      <path class="cls-5" d="M731.48,592.75l93.45-20.36-93.3,26.63c-1.86.53-3.46-.43-3.57-2.14-.11-1.71,1.31-3.53,3.17-4.06.08-.02.17-.04.24-.06Z"/>
    </g>
  </g>
  <g>
    <g>
      <path class="cls-1" d="M424.84,657.5c6.2-1.56,10.82-1.54,13.91.37,2.45,1.57,4.24,4.44,4.34,8.7.13,5.43-2.02,10.03-5.72,13.61-3.59,3.55-8.41,5.9-14.42,7.4l-11.57,2.91-.03-1.22c4.2-1.33,4.57-1.7,4.48-5.55l-.43-18.15c-.1-3.89-.49-3.98-4.26-3.3l-.03-1.31,13.72-3.45ZM420.03,682.35c.08,3.44,1.71,3.9,5.28,3,9.13-2.3,13.19-9.7,13.01-16.94-.11-4.66-2.07-8.22-6.03-9.37-2.23-.76-5.07-.59-8.34.23-2.05.51-3.31,1.06-3.8,1.5-.48.44-.62.97-.57,2.74l.45,18.83Z"/>
      <path class="cls-1" d="M476.56,666.89c-.26,1.57-1.13,6.07-1.54,7.59l-23.54,5.92-.03-1.27c4.45-1.43,4.82-1.89,4.74-5.56l-.44-18.02c-.09-4.08-.48-4.11-4.3-3.47l-.03-1.27,21.78-5.48c.02,1.13.34,4.15.54,6.42l-1.41.58c-.48-1.79-1-2.66-1.66-3.5-.7-.78-2.02-.76-5.55.12l-3.71.94c-1.51.38-1.61.49-1.57,1.85l.24,10.27,4.59-1.15c4.4-1.11,4.63-1.53,5.2-4.72l1.41-.36.2,8.7-1.41.36c-.72-3.1-1.06-3.29-5.31-2.22l-4.63,1.17.2,8.56c.05,2.13.36,3.01,1.26,3.37.94.31,2.65-.08,5.09-.69,3.71-.93,5.06-1.64,6.11-3.09.81-1.11,1.7-2.89,2.29-4.86l1.46-.18Z"/>
      <path class="cls-1" d="M500.67,645.34c-.94-2.68-2.29-5.48-6.54-4.41-3.76.94-5.36,3.9-5.3,6.34.08,3.3,2.45,4.25,6.36,5.14,3.85.85,8.54,1.81,8.66,6.88.11,4.76-4.14,9.65-10.64,11.29-1.99.5-3.57.54-4.8.52-1.23-.1-1.97-.23-2.42-.35-.42-.85-1.14-4.59-1.49-6.69l1.41-.68c.84,2.57,3.16,6.59,8.18,5.32,3.66-.92,5.81-3.6,5.74-6.91-.08-3.35-2.81-4.26-6.51-5.15-3.17-.75-8.15-1.78-8.27-6.89-.11-4.35,3.56-9.01,9.87-10.59,2.25-.57,4.32-.58,6.17-.51.24,1.58.53,3.29.99,6.04l-1.42.63Z"/>
      <path class="cls-1" d="M525.15,632.26c6.2-1.56,10.82-1.54,13.91.37,2.45,1.57,4.24,4.44,4.34,8.7.13,5.43-2.02,10.03-5.72,13.6-3.59,3.55-8.41,5.9-14.42,7.41l-11.57,2.91-.03-1.22c4.2-1.33,4.57-1.7,4.48-5.55l-.43-18.15c-.1-3.89-.49-3.98-4.26-3.3l-.03-1.31,13.72-3.46ZM520.34,657.11c.08,3.44,1.71,3.9,5.28,3,9.13-2.3,13.19-9.7,13.01-16.94-.11-4.66-2.07-8.22-6.03-9.37-2.23-.76-5.07-.59-8.35.23-2.05.52-3.31,1.06-3.79,1.5-.48.44-.62.98-.57,2.74l.45,18.83Z"/>
      <path class="cls-1" d="M576.88,641.65c-.26,1.57-1.13,6.07-1.54,7.59l-23.54,5.92-.03-1.27c4.45-1.44,4.82-1.89,4.74-5.56l-.44-18.02c-.09-4.08-.48-4.12-4.31-3.47l-.03-1.27,21.78-5.48c.03,1.13.34,4.15.54,6.43l-1.4.58c-.49-1.79-1-2.66-1.66-3.5-.7-.78-2.03-.77-5.55.12l-3.71.93c-1.51.38-1.61.5-1.58,1.86l.25,10.27,4.59-1.15c4.4-1.11,4.63-1.53,5.2-4.73l1.41-.35.2,8.7-1.41.35c-.72-3.1-1.06-3.28-5.31-2.22l-4.64,1.17.21,8.56c.05,2.13.36,3,1.26,3.37.94.31,2.65-.08,5.09-.69,3.71-.93,5.06-1.64,6.11-3.09.81-1.11,1.7-2.89,2.29-4.86l1.46-.18Z"/>
      <path class="cls-1" d="M604.25,641.96l-.03-1.22c4.44-1.43,4.68-1.86,4.6-5.12l-.42-17.43c-.06-2.35-.26-2.53-2.42-2.08l-2.35.5-.02-1.04c3.12-1.28,5.98-2.87,8.64-4.54l.57,23.59c.08,3.26.37,3.55,4.82,2.75l.03,1.22-13.44,3.38Z"/>
      <path class="cls-1" d="M648.3,613.34c.2,8.33-4.6,15.46-11.13,19.56-2.61,1.66-5.58,2.86-6.8,3.17l-.27-1.3c6.95-2.84,12.17-8.71,13.62-16l-3.24,2.45c-1.06.81-1.98,1.23-2.91,1.46-5.18,1.3-8.83-1.33-8.94-6.09-.1-4.34,3.43-10.56,9.74-12.15,6.11-1.53,9.79,2.73,9.94,8.88ZM632.79,613.97c.1,3.98,2.62,6.67,6.72,5.64,1.71-.43,3.37-1.39,4.37-2.37.12-1.03.15-2.14.13-3.04-.1-3.98-1.5-9.27-6.24-8.08-3.76.95-5.03,5.19-4.97,7.86Z"/>
      <path class="cls-1" d="M675.07,601.97c.03,1.31-.43,2.74-1.33,3.97-.33.49-1.62,1.91-3.78,3.87,3.4.92,6.54,2.32,6.63,6.26.13,5.3-5.32,9.59-9.47,10.63-5.22,1.32-9.44-.45-9.56-5.29-.05-2.08,1.05-3.64,2.1-4.86.76-.88,2.6-2.57,4.23-3.98-3.22-.88-5.37-2.52-5.45-5.68-.09-3.8,3.29-8.3,8.52-9.62,4.63-1.16,8.02,1.03,8.11,4.7ZM672.71,618.22c-.08-3.4-3.6-4.47-7.4-5.29-2.31,2.04-3.91,4.72-3.86,7.21.11,4.17,3.04,5.75,6.11,4.98,2.98-.75,5.23-3.41,5.15-6.9ZM662.06,604.65c.08,3.34,3,4.11,6.51,4.82,1.63-1.64,2.91-3.65,2.85-6.36-.09-3.8-2.67-4.84-4.92-4.28-2.88.73-4.48,3.5-4.43,5.81Z"/>
      <path class="cls-1" d="M693.39,602.41c1.06-.72,2.08-1.3,3.06-1.54,5.22-1.31,8.88,1.5,8.99,6.17.13,5.39-3.91,11.01-9.77,12.48-5.71,1.44-10.12-1.83-10.29-8.8-.23-9.91,7.06-16.89,12.2-19.96,1.94-1.13,4.27-2.22,6.22-3.02l.38,1.36c-1.61.68-3.49,1.7-5.28,2.92-2.95,2.06-7.43,6.06-8.74,12.71l3.24-2.32ZM689.95,606.33c-.23.92-.25,2.02-.22,3.2.13,5.43,2.72,9.25,6.73,8.24,3.8-.96,4.89-5.06,4.82-8.05-.09-3.76-2.23-6.96-6.68-5.84-1.85.46-3.5,1.56-4.66,2.45Z"/>
    </g>
    <g>
      <path class="cls-1" d="M389.73,685.04l-93.45,20.36,93.3-26.63c1.86-.53,3.46.43,3.57,2.14.11,1.71-1.31,3.53-3.17,4.06-.08.02-.17.04-.24.06Z"/>
      <path class="cls-1" d="M731.48,592.75l93.45-20.36-93.3,26.63c-1.86.53-3.46-.43-3.57-2.14-.11-1.71,1.31-3.53,3.17-4.06.08-.02.17-.04.24-.06Z"/>
    </g>
  </g>
</svg>