<?xml version="1.0" encoding="UTF-8"?>
<svg id="Layer_1" data-name="Layer 1" xmlns="http://www.w3.org/2000/svg" viewBox="0 0 1080 1080">
  <defs>
    <style>
      .cls-1 {
        fill: #fff;
      }

      .cls-2 {
        fill: #ffb6c0;
      }
    </style>
  </defs>
  <g>
    <path class="cls-1" d="M289.5,457.26h0c2.64.18,4.95-1.79,5.13-4.38.09-1.26-.32-2.47-1.17-3.43-.84-.95-2.01-1.53-3.29-1.61-11.75-.81-19.65-3.2-22.85-6.92-1.25-1.45-1.74-3.1-1.54-5.21.23-2.41,1.58-5.02,3.8-7.34,7.66-8,19.3-8.11,30.56-7.53,9.05.46,18.27,1.68,27.29,2.87,4.63.61,9.42,1.24,14.16,1.77l.24.03c2.13.24,4.3.48,6.5.72-8.7,11-15.87,23.95-21.31,38.52-7.47,19.99-11.13,43.06-10.88,68.56.11,10.6,3.27,37.13,5.2,48.17.4,2.27,2.39,3.92,4.74,3.92.27,0,.54-.02.82-.07,2.61-.44,4.37-2.89,3.93-5.45-1.84-10.51-4.96-36.68-5.06-46.67-.24-24.36,3.22-46.3,10.29-65.22,5.91-15.83,13.88-29.47,23.68-40.56,9.47.97,23.35,2.27,37.23,2.82,10.92.44,23.18-.22,31.25-8.35,3.55-3.58,5.55-8.15,5.48-12.55-.1-5.95-3.9-11.69-9.92-14.98-6.28-3.42-14.09-4.13-23.88-2.16-15.81,3.18-31,11.94-43.97,25.33-4.52-.48-8.95-.97-13.25-1.44-4.69-.52-9.44-1.15-14.06-1.76-9.11-1.2-18.53-2.45-27.97-2.93-12.92-.66-27.59-.45-38.07,10.5-2.6,2.72-5.81,7.16-6.36,12.92-.45,4.67.82,8.77,3.78,12.2,5.06,5.86,14.71,9.21,29.51,10.23ZM419.1,402.64c2.98,1.63,4.94,4.33,4.98,6.87.03,1.9-.97,4.01-2.75,5.81-5.42,5.46-14.73,5.87-23.98,5.51-8.65-.34-17.92-.99-28.98-2.02,10.24-9,21.75-14.97,33.45-17.33,7.44-1.5,13.09-1.12,17.27,1.16Z"/>
    <path class="cls-1" d="M339.91,514.45c0,36.66,30.39,66.49,67.74,66.49s67.73-29.83,67.73-66.49-30.39-66.49-67.73-66.49-67.74,29.83-67.74,66.49ZM407.65,571.5c-32.05,0-58.12-25.59-58.12-57.05s26.07-57.05,58.12-57.05,58.11,25.59,58.11,57.05-26.07,57.05-58.11,57.05Z"/>
    <path class="cls-1" d="M637.4,579.31c.06,2.55,2.21,4.62,4.91,4.62h0c1.28-.03,2.48-.55,3.37-1.46.89-.91,1.36-2.11,1.33-3.37-.59-26.38-.38-42.78.73-56.03h61.97v56.13c0,2.6,2.16,4.72,4.81,4.72s4.81-2.12,4.81-4.72v-143.84l-4.92.11c-1.67.04-41.28,1.42-63.69,40.45-12.88,22.44-14.52,50.03-13.32,103.38ZM648.77,513.63c1.85-13.63,5.06-23.88,10.33-33.06,15.35-26.74,39.43-33.46,50.61-35.14v68.21h-60.95Z"/>
    <path class="cls-1" d="M758.02,581.13c5.5,2.34,11.48,3.53,17.78,3.53h0c8.67,0,17.42-2.29,25.29-6.63,10.65-5.87,18.4-15.42,21.28-26.19,3.39-12.69-.07-27.55-9.28-39.74-11.07-14.68-27.84-23.53-42.79-30.25-11.55-5.2-19.15-10.5-18.68-19.5.42-8.04,6.13-15.26,14.54-18.41,7.82-2.91,15.68-1.48,21.03,3.85,3.37,3.36,5.52,7.98,5.91,12.68.11,1.26.7,2.41,1.68,3.23.98.81,2.23,1.2,3.5,1.1,1.28-.1,2.45-.69,3.28-1.65.83-.96,1.23-2.18,1.13-3.44-.58-6.98-3.65-13.56-8.65-18.55-7.98-7.96-19.98-10.28-31.3-6.05-11.98,4.47-20.12,14.97-20.73,26.75-.9,17.25,15.48,24.61,24.28,28.57,13.83,6.22,29.29,14.33,39.07,27.29,7.48,9.92,10.36,21.78,7.7,31.73-2.22,8.31-8.3,15.73-16.69,20.35-11.13,6.14-24.04,7.14-34.54,2.67-10.2-4.34-17.3-13.47-20.53-26.39-.31-1.22-1.08-2.26-2.18-2.91-1.1-.66-2.4-.85-3.64-.55-2.58.62-4.16,3.18-3.52,5.71,5.02,20.09,16.94,28.93,26.05,32.8Z"/>
    <path class="cls-1" d="M558.09,442.49h41.61v134.23c0,2.6,2.16,4.72,4.81,4.72s4.81-2.12,4.81-4.72v-134.23h41.61c2.65,0,4.81-2.12,4.81-4.72s-2.16-4.72-4.81-4.72h-46.07c-.23-.03-.56-.03-.62,0h-46.16c-2.65,0-4.81,2.12-4.81,4.72s2.16,4.72,4.81,4.72Z"/>
    <path class="cls-1" d="M489.48,583.93c2.65,0,4.81-2.12,4.81-4.72v-83.57c25.3-.36,51.42-.66,62.64,24.05,8.16,17.98,7.66,40.4,6.32,57.93-.1,1.26.31,2.48,1.15,3.43.84.96,2.01,1.53,3.29,1.63,2.6.19,4.95-1.79,5.15-4.35,1.43-18.64,1.91-42.58-7.13-62.49-6.75-14.86-18-23.67-35.18-27.42,5.27-2.45,9.39-5.92,12.51-10.52,5.87-8.64,4.06-19.65-.33-26.73-9.79-15.78-34.55-16.87-53.53-15.02-2.06.09-4.53,1.22-4.53,6.05v137c0,2.6,2.16,4.72,4.81,4.72ZM494.29,483.57v-38.36c12.6-.83,33.28-.32,40.22,10.87,3.31,5.34,3.54,12.16.54,16.58-7.65,11.28-24.2,11.09-38.89,10.92-.63,0-1.25-.01-1.86-.02Z"/>
    <path class="cls-1" d="M674.42,659.73c5.86-2.66,10.42-6.46,13.85-11.53,6.34-9.34,4.39-21.24-.36-28.88-10.61-17.11-37.51-18.26-58.21-16.23l-4.59.45v154.7c0,2.76,2.29,5.01,5.1,5.01s5.1-2.25,5.1-5.01v-90.84c27.56-.4,56-.76,68.24,26.18,8.87,19.54,8.33,43.9,6.87,62.94-.21,2.75,1.9,5.16,4.68,5.37,2.79.26,5.28-1.88,5.49-4.61,1.55-20.21,2.08-46.18-7.73-67.77-7.36-16.2-19.64-25.75-38.45-29.78ZM679.79,642.65c-8.35,12.31-26.34,12.1-42.21,11.91h-.12c-.72,0-1.44-.02-2.14-.02v-41.87c13.69-.91,36.3-.38,43.89,11.85,3.62,5.84,3.86,13.29.58,18.12Z"/>
    <path class="cls-1" d="M435.97,645.93c-13.97,24.34-15.75,54.27-14.45,112.16.06,2.7,2.34,4.9,5.21,4.9h0c1.36-.03,2.63-.58,3.57-1.55.94-.97,1.44-2.23,1.41-3.57-.65-28.69-.41-46.52.8-60.94h67.5v61.05c0,2.76,2.29,5.01,5.1,5.01s5.1-2.25,5.1-5.01v-156.03l-5.22.12c-1.81.04-44.74,1.54-69.03,43.86ZM433.6,686.91c2.01-14.88,5.5-26.05,11.25-36.07,16.75-29.18,43.07-36.44,55.17-38.23v74.3h-66.42Z"/>
    <path class="cls-1" d="M818.66,602.07h0c-1.81.04-44.74,1.54-69.03,43.85-13.97,24.34-15.75,54.27-14.45,112.16.06,2.7,2.34,4.9,5.21,4.9h0c1.36-.03,2.63-.58,3.57-1.55.94-.97,1.44-2.23,1.41-3.57-.65-28.69-.41-46.52.8-60.94h67.5v61.05c0,2.76,2.29,5.01,5.1,5.01s5.1-2.25,5.1-5.01v-156.03l-5.22.12ZM813.68,612.61v74.3h-66.42c2.01-14.88,5.5-26.05,11.25-36.07,16.75-29.18,43.07-36.44,55.17-38.23Z"/>
    <path class="cls-1" d="M612.22,607.11c.02-2.76-2.25-5.02-5.05-5.04-1.4.01-2.63.49-3.61,1.43-.98.95-1.53,2.2-1.54,3.54-.09,12.5.17,25.23.41,37.55l1.42-.03h0s-1.41.19-1.41.19c.45,22.58.92,45.93-.71,68.58-.57,7.83-1.55,16.04-4.86,23.08-5.39,11.46-19.08,18.33-32.52,16.33-18.94-2.8-29-19.51-30.74-51.08-1.2-21.64-.71-43.83-.24-65.3.21-9.58.43-19.49.49-29.25.02-2.76-2.26-5.02-5.1-5.04-2.79,0-5.08,2.23-5.1,4.97-.06,9.78-.29,20.05-.49,29.12-.47,21.64-.96,44.01.26,66.04,2.02,36.53,15.28,56.86,39.41,60.44,2.01.3,4.07.45,6.12.45,15.92,0,30.86-9.04,37.18-22.48,3.99-8.49,5.13-17.79,5.77-26.57,1.67-23.12,1.2-46.71.74-69.52-.25-12.24-.5-24.89-.42-37.41Z"/>
    <path class="cls-1" d="M430.96,771.43h0c-9.91-.51-19.97-1.84-29.76-3.13-5.06-.67-10.29-1.36-15.47-1.93l-1.64-.18c-1.91-.21-3.85-.42-5.81-.64,9.52-12.02,17.36-26.17,23.31-42.1,8.15-21.82,12.14-46.98,11.86-74.8-.11-11.54-3.56-40.49-5.67-52.56-.48-2.77-3.18-4.63-6-4.16-2.82.47-4.72,3.11-4.24,5.88,2,11.47,5.42,40.03,5.52,50.94.26,26.58-3.52,50.54-11.23,71.19-6.46,17.29-15.16,32.19-25.88,44.3-10.32-1.05-25.49-2.48-40.65-3.08-11.9-.48-25.26.23-34.06,9.1-3.87,3.9-6.04,8.87-5.96,13.65.1,6.47,4.24,12.72,10.8,16.3,4.36,2.38,9.3,3.54,15.12,3.54,3.33,0,7-.4,10.9-1.19,17.25-3.47,33.82-13.02,47.98-27.64,4.96.52,9.8,1.06,14.49,1.58,5.14.57,10.31,1.25,15.38,1.92,9.93,1.31,20.19,2.66,30.5,3.19,2.84.12,5.28-2.07,5.43-4.82.15-2.8-2.06-5.21-4.91-5.36ZM356.64,773.57c-11.2,9.87-23.81,16.42-36.63,19.01-8.14,1.64-14.32,1.22-18.88-1.27-3.27-1.79-5.42-4.75-5.46-7.55-.03-2.09,1.06-4.41,3.02-6.38,4.21-4.24,10.78-6.14,21.32-6.14,1.48,0,3.08.04,4.89.11,9.5.37,19.66,1.09,31.75,2.22Z"/>
    <path class="cls-2" d="M303.55,740.14h0c.07.03.14.05.22.07.83.34,1.59.5,2.33.5.6,0,1.2-.11,1.78-.32,2.64-.98,3.44-3.76,3.7-4.68,1.19-4.18,2.48-8.6,3.84-13.2.68,5.38,3.2,10.64,8.29,13.5,2.76,1.55,5.43,2.31,8.17,2.31,3.49,0,6.7-1.23,9.75-2.4.12-.04.25-.07.37-.13,21.76-9.57,35.83-30.87,35.83-54.27s-13.25-43.36-33.87-53.34c1.36-4.72,2.52-8.89,3.56-12.7.25-.92.12-1.88-.36-2.7-.49-.82-1.27-1.41-2.2-1.66-.94-.25-1.91-.12-2.75.35-.84.48-1.44,1.25-1.69,2.17-.97,3.56-2.07,7.51-3.29,11.76-6.42-2.21-13.12-3.32-19.94-3.32-33.39,0-60.55,26.66-60.55,59.44,0,23.82,14.43,45.28,36.8,54.69l10.01,3.93ZM331.47,705.28c2.49-.47,5.36.56,6.96,2.46.69.82,1.88,3.49,1.96,5.21-.51-.01-1.27-.06-2.43-.16-.77-.07-1.44-.12-1.87-.12h-12.24c1.4-3.39,3.93-6.71,7.61-7.39ZM341.95,635.15c17.45,8.99,28.64,27.01,28.64,46.37,0,20.5-12.29,39.2-31.28,47.65l-.1.04c-5.14,1.97-7.72,2.96-11.87.63-3.36-1.89-4.77-6.16-4.83-10.16.3.08.61.12.93.12h12.66c.24,0,.58.03.98.07l.25.02c3.46.3,6.04.41,7.89-1.08.96-.77,2.15-2.21,2.39-4.69.38-3.9-1.84-8.85-3.59-10.92-3.32-3.94-8.78-5.86-13.9-4.91-3.71.69-6.67,2.67-8.95,5.21,2.01-6.6,4.11-13.42,6.26-20.39,4.97-16.15,10.1-32.83,14.53-47.96ZM293.77,711.83c3.92-6.5,13.22-10.48,19.98-10.92.23-.01.45-.05.66-.1-3.5,11.47-6.75,22.26-9.5,31.89-.1-.06-.19-.12-.28-.18-.63-.4-1.33-.84-2.09-1.29-4.51-2.62-7.61-5.67-9.22-9.05-1.69-3.57-1.55-7.05.44-10.35ZM313.27,693.81c-8.83.58-20.51,5.71-25.74,14.4-3.01,5-3.45,10.44-1.28,15.81-13.85-9.75-22.25-25.58-22.25-42.5,0-28.85,23.91-52.32,53.29-52.32,6.15,0,12.18,1.03,17.96,3.07-4.45,15.22-9.69,32.27-14.77,48.78-1.45,4.72-2.88,9.37-4.28,13.93-.1-.11-.2-.21-.31-.3-.72-.62-1.69-.94-2.61-.87Z"/>
  </g>
  <path class="cls-2" d="M645.5,305.32c-1.23-3.09-2.15-6.34-3.74-9.24-13.57-25.02-48.74-26.68-65.09-3.14-6.49,9.34-11.15,19.6-15.46,30-4.47-10.45-9.25-20.74-15.9-30.08-16.6-23.35-51.75-21.31-65.05,3.85-1.54,2.92-2.44,6.18-3.62,9.28-.27,2.32-.55,4.64-.82,6.97.06.33.17.65.17.98.03,8.98,3.05,16.89,8.92,23.73,6.02,7.04,13.18,12.85,20.56,18.4,17.83,13.4,36.91,24.92,56.28,35.99l7.32-4.33c16.58-9.89,32.84-20.25,48.15-32.03,7.33-5.63,14.42-11.52,20.36-18.62,5.79-6.92,8.72-14.85,8.65-23.83,0-.33.11-.65.16-.98-.29-2.31-.6-4.63-.89-6.96ZM522.34,287.79c5.68,1.77,10.28,5.05,13.81,9.78,6.33,8.44,10.89,17.84,14.87,27.48,1.62,3.93,3.18,7.88,4.7,11.85-.73,1.97-1.46,3.95-2.16,5.92-8.35-12.92-16.82-25.75-26.33-37.91-5.14-6.56-10.92-12.5-17.86-17.25-.16-.12-.29-.28-.64-.6,4.77-.91,9.23-.64,13.62.73ZM497.11,292.71c.91.34,1.87.6,2.73,1.03,4.36,2.13,8.01,5.2,11.45,8.53,6.74,6.52,12.2,14.05,17.39,21.76,6.96,10.35,13.76,20.79,20.58,31.23-.35,1.07-.7,2.13-1.05,3.2-2.8-2.74-5.57-5.5-8.28-8.33-9.94-10.45-19.85-20.92-29.52-31.61-5.25-5.8-9.48-12.35-12.2-19.72-.68-1.84-1.06-3.81-1.56-5.71.15-.13.3-.25.45-.38ZM502.89,341.13c-4.52-3.81-8.99-7.73-12.24-12.68-5.12-7.77-5.82-16.08-2.47-24.71.11-.3.3-.56.35-.63,2.37,4.19,4.56,8.51,7.16,12.59,5.25,8.25,11.89,15.45,18.66,22.49,10.04,10.46,20.3,20.72,30.47,31.06-.1.31-.19.61-.28.91-14.44-8.89-28.67-18.1-41.65-29.03ZM566.86,336.85h0c1.45-3.91,2.93-7.79,4.48-11.66,3.87-9.69,8.33-19.13,14.55-27.65,3.48-4.76,8.04-8.08,13.71-9.93,4.37-1.41,8.81-1.72,13.6-.87-.34.33-.47.49-.63.6-6.89,4.83-12.6,10.83-17.66,17.45-9.33,12.19-17.62,25.05-25.8,37.99-.73-1.98-1.48-3.96-2.24-5.93ZM573.52,355.21c6.67-10.46,13.32-20.92,20.14-31.29,5.1-7.75,10.47-15.36,17.15-21.95,3.4-3.36,7.02-6.47,11.35-8.65.86-.44,1.81-.71,2.71-1.05.15.12.3.24.46.37-.49,1.91-.83,3.88-1.49,5.73-2.64,7.39-6.8,13.98-11.99,19.85-9.54,10.79-19.34,21.36-29.16,31.92-2.63,2.82-5.33,5.57-8.05,8.3-.37-1.08-.73-2.15-1.11-3.23ZM631.74,327.93c-3.21,4.98-7.63,8.95-12.1,12.81-12.8,11.04-26.9,20.37-41.19,29.39-.1-.31-.2-.63-.29-.95,10.01-10.41,20.1-20.74,29.99-31.26,6.69-7.12,13.25-14.38,18.41-22.69,2.56-4.11,4.7-8.46,7.02-12.67.05.07.24.33.36.62,3.44,8.6,2.84,16.91-2.18,24.74Z"/>
</svg>